<?xml version="1.0" encoding="utf-8"?>
<!-- Generator: Adobe Illustrator 15.0.0, SVG Export Plug-In . SVG Version: 6.00 Build 0)  -->
<!DOCTYPE svg PUBLIC "-//W3C//DTD SVG 1.1//EN" "http://www.w3.org/Graphics/SVG/1.1/DTD/svg11.dtd">
<svg version="1.1" id="Layer_1" xmlns="http://www.w3.org/2000/svg" xmlns:xlink="http://www.w3.org/1999/xlink" x="0px" y="0px"
	  viewBox="0 0 60 60" enable-background="new 0 0 60 60" xml:space="preserve">
<linearGradient id="SVGID_1_" gradientUnits="userSpaceOnUse" x1="170" y1="10.355" x2="170" y2="40.0103">
	<stop  offset="0" style="stop-color:#E6E6E6"/>
	<stop  offset="1" style="stop-color:#B3B3B3"/>
</linearGradient>
<path fill="url(#SVGID_1_)" d="M194.191,30.742c0-4.646-3.478-8.493-8.014-9.162c-1.609-6.449-7.439-11.225-14.386-11.225
	c-4.654,0-8.805,2.146-11.524,5.501c-0.795-0.433-1.711-0.681-2.686-0.681c-3.07,0-5.561,2.449-5.561,5.469
	c0,0.459,0.064,0.903,0.173,1.329c-3.712,1.244-6.386,4.701-6.386,8.773c0,5.118,4.22,9.264,9.422,9.264
	c0.08,0,16.484-0.004,16.562-0.004c0.078,0,12.739-0.006,12.739-0.006c0.078,0,0.39,0,0.469,0h0.003l0,0
	C190.099,40,194.191,35.781,194.191,30.742z"/>
<linearGradient id="SVGID_2_" gradientUnits="userSpaceOnUse" x1="-167" y1="-2" x2="-167" y2="58.0005">
	<stop  offset="0" style="stop-color:#003D6A;stop-opacity:0.7"/>
	<stop  offset="1" style="stop-color:#003D6A"/>
</linearGradient>
<circle fill="url(#SVGID_2_)" cx="-167" cy="28" r="30"/>
<g>
	<radialGradient id="SVGID_3_" cx="-177.8135" cy="40.5254" r="3.2655" gradientUnits="userSpaceOnUse">
		<stop  offset="0" style="stop-color:#FFFFFF"/>
		<stop  offset="0.1142" style="stop-color:#FAFCFE"/>
		<stop  offset="0.2541" style="stop-color:#EBF5FB"/>
		<stop  offset="0.4074" style="stop-color:#D2E8F7"/>
		<stop  offset="0.5703" style="stop-color:#AFD6F1"/>
		<stop  offset="0.741" style="stop-color:#83C0E9"/>
		<stop  offset="0.9154" style="stop-color:#4DA5DF"/>
		<stop  offset="0.9888" style="stop-color:#3498DB"/>
	</radialGradient>
	<path fill="url(#SVGID_3_)" d="M-175.037,41.438c0,1.534-1.244,2.777-2.777,2.777s-2.775-1.243-2.775-2.777
		c0-1.531,2.775-4.603,2.775-4.603S-175.037,39.907-175.037,41.438z"/>
</g>
<g>
	<radialGradient id="SVGID_4_" cx="-167.9155" cy="40.5254" r="3.2644" gradientUnits="userSpaceOnUse">
		<stop  offset="0" style="stop-color:#FFFFFF"/>
		<stop  offset="0.1142" style="stop-color:#FAFCFE"/>
		<stop  offset="0.2541" style="stop-color:#EBF5FB"/>
		<stop  offset="0.4074" style="stop-color:#D2E8F7"/>
		<stop  offset="0.5703" style="stop-color:#AFD6F1"/>
		<stop  offset="0.741" style="stop-color:#83C0E9"/>
		<stop  offset="0.9154" style="stop-color:#4DA5DF"/>
		<stop  offset="0.9888" style="stop-color:#3498DB"/>
	</radialGradient>
	<path fill="url(#SVGID_4_)" d="M-165.141,41.438c0,1.532-1.242,2.776-2.773,2.776c-1.533,0-2.776-1.244-2.776-2.776
		c0-1.531,2.776-4.603,2.776-4.603S-165.141,39.907-165.141,41.438z"/>
</g>
<g>
	<radialGradient id="SVGID_5_" cx="-158.0171" cy="40.5254" r="3.2662" gradientUnits="userSpaceOnUse">
		<stop  offset="0" style="stop-color:#FFFFFF"/>
		<stop  offset="0.1142" style="stop-color:#FAFCFE"/>
		<stop  offset="0.2541" style="stop-color:#EBF5FB"/>
		<stop  offset="0.4074" style="stop-color:#D2E8F7"/>
		<stop  offset="0.5703" style="stop-color:#AFD6F1"/>
		<stop  offset="0.741" style="stop-color:#83C0E9"/>
		<stop  offset="0.9154" style="stop-color:#4DA5DF"/>
		<stop  offset="0.9888" style="stop-color:#3498DB"/>
	</radialGradient>
	<path fill="url(#SVGID_5_)" d="M-155.239,41.438c0,1.534-1.243,2.777-2.776,2.777s-2.779-1.243-2.779-2.777
		c0-1.531,2.779-4.603,2.779-4.603S-155.239,39.907-155.239,41.438z"/>
</g>
<g>
	<radialGradient id="SVGID_6_" cx="-172.9453" cy="49.208" r="3.2655" gradientUnits="userSpaceOnUse">
		<stop  offset="0" style="stop-color:#FFFFFF"/>
		<stop  offset="0.1142" style="stop-color:#FAFCFE"/>
		<stop  offset="0.2541" style="stop-color:#EBF5FB"/>
		<stop  offset="0.4074" style="stop-color:#D2E8F7"/>
		<stop  offset="0.5703" style="stop-color:#AFD6F1"/>
		<stop  offset="0.741" style="stop-color:#83C0E9"/>
		<stop  offset="0.9154" style="stop-color:#4DA5DF"/>
		<stop  offset="0.9888" style="stop-color:#3498DB"/>
	</radialGradient>
	<path fill="url(#SVGID_6_)" d="M-170.169,50.123c0,1.532-1.244,2.775-2.776,2.775s-2.776-1.243-2.776-2.775
		c0-1.533,2.776-4.605,2.776-4.605S-170.169,48.59-170.169,50.123z"/>
</g>
<g>
	<radialGradient id="SVGID_7_" cx="-163.0469" cy="49.208" r="3.2655" gradientUnits="userSpaceOnUse">
		<stop  offset="0" style="stop-color:#FFFFFF"/>
		<stop  offset="0.1142" style="stop-color:#FAFCFE"/>
		<stop  offset="0.2541" style="stop-color:#EBF5FB"/>
		<stop  offset="0.4074" style="stop-color:#D2E8F7"/>
		<stop  offset="0.5703" style="stop-color:#AFD6F1"/>
		<stop  offset="0.741" style="stop-color:#83C0E9"/>
		<stop  offset="0.9154" style="stop-color:#4DA5DF"/>
		<stop  offset="0.9888" style="stop-color:#3498DB"/>
	</radialGradient>
	<path fill="url(#SVGID_7_)" d="M-160.271,50.121c0,1.534-1.243,2.777-2.776,2.777s-2.776-1.243-2.776-2.777
		c0-1.532,2.776-4.604,2.776-4.604S-160.271,48.589-160.271,50.121z"/>
</g>
<linearGradient id="SVGID_8_" gradientUnits="userSpaceOnUse" x1="-167.2793" y1="4.355" x2="-167.2793" y2="34.0103">
	<stop  offset="0" style="stop-color:#B4CDDC"/>
	<stop  offset="1" style="stop-color:#6EA9D5"/>
</linearGradient>
<path fill="url(#SVGID_8_)" d="M-143.088,24.742c0-4.646-3.478-8.492-8.014-9.162c-1.609-6.449-7.439-11.225-14.386-11.225
	c-4.654,0-8.805,2.146-11.524,5.501c-0.795-0.433-1.711-0.681-2.686-0.681c-3.071,0-5.561,2.449-5.561,5.469
	c0,0.459,0.064,0.903,0.173,1.329c-3.712,1.244-6.386,4.701-6.386,8.773c0,5.117,4.22,9.264,9.422,9.264
	c0.079,0,16.484-0.004,16.561-0.004c0.078,0,12.739-0.006,12.739-0.006c0.078,0,0.39,0,0.469,0h0.003l0,0
	C-147.181,34-143.088,29.781-143.088,24.742z"/>
<g>
	<path fill="#CCCCCC" d="M189.995,47.728h-13.679c-1.352,0-2.45-1.239-2.45-2.76c0-1.522,1.099-2.761,2.45-2.761
		c0.504,0,0.91,0.458,0.91,1.023c0,0.563-0.406,1.022-0.91,1.022c-0.35,0-0.633,0.318-0.633,0.715c0,0.394,0.283,0.714,0.633,0.714
		h13.679c0.502,0,0.909,0.458,0.909,1.022C190.904,47.27,190.497,47.728,189.995,47.728"/>
	<path fill="#CCCCCC" d="M171.471,45.614c0.502,0,0.908,0.457,0.908,1.022c0,0.564-0.406,1.022-0.908,1.022
		c-0.352,0-0.637,0.32-0.637,0.715c0,0.393,0.285,0.714,0.637,0.714h6.752h6.926h5.66c0.503,0,0.911,0.458,0.911,1.022
		c0,0.565-0.408,1.023-0.911,1.023h-5.66h-6.926h-6.752c-1.354,0-2.452-1.237-2.452-2.76S170.117,45.614,171.471,45.614"/>
	<path fill="#ADC6D8" d="M164.773,48.659l-0.553-0.318l0.467-0.277c0.075-0.037,0.098-0.139,0.055-0.213
		c-0.043-0.075-0.136-0.092-0.208-0.051l-0.622,0.365l-0.99-0.576l0.99-0.568l0.622,0.363c0.019,0.014,0.045,0.023,0.072,0.023
		c0.054,0,0.101-0.025,0.136-0.072c0.043-0.076,0.021-0.176-0.055-0.212l-0.467-0.278l0.553-0.318
		c0.072-0.042,0.098-0.136,0.055-0.211c-0.039-0.074-0.136-0.1-0.211-0.057l-0.555,0.322l-0.008-0.555
		c-0.002-0.088-0.066-0.156-0.152-0.156c-0.088,0-0.154,0.073-0.154,0.156l0.006,0.732l-0.984,0.57v-1.155l0.621-0.354
		c0.071-0.041,0.104-0.137,0.061-0.21c-0.044-0.076-0.133-0.099-0.208-0.057l-0.474,0.267v-0.631c0-0.085-0.068-0.154-0.154-0.154
		c-0.088,0-0.154,0.069-0.154,0.154v0.637l-0.488-0.272c-0.076-0.042-0.163-0.019-0.205,0.057c-0.044,0.074-0.018,0.169,0.058,0.21
		l0.636,0.358v1.146l-1.006-0.58l0.006-0.717c0.01-0.083-0.062-0.156-0.148-0.156h-0.007c-0.081,0-0.152,0.068-0.153,0.156
		l-0.005,0.539l-0.542-0.312c-0.076-0.043-0.168-0.018-0.208,0.055c-0.042,0.078-0.021,0.169,0.054,0.213l0.548,0.316l-0.478,0.286
		c-0.074,0.036-0.099,0.138-0.053,0.212c0.029,0.047,0.072,0.072,0.131,0.072c0.03,0,0.056-0.008,0.08-0.023l0.626-0.369
		l1.003,0.574l-1.003,0.582L160.68,47.8c-0.074-0.044-0.17-0.021-0.211,0.051c-0.041,0.077-0.018,0.169,0.053,0.213l0.478,0.282
		l-0.548,0.319c-0.074,0.045-0.1,0.137-0.054,0.211c0.03,0.053,0.071,0.078,0.13,0.078c0.014,0,0.041-0.008,0.078-0.022l0.542-0.312
		l0.005,0.54c0.002,0.086,0.072,0.152,0.153,0.152h0.007c0.086,0,0.148-0.071,0.148-0.159l-0.006-0.716l1.006-0.575v1.14
		l-0.636,0.358c-0.076,0.042-0.103,0.136-0.058,0.211c0.029,0.053,0.07,0.078,0.129,0.078c0.029,0,0.054-0.005,0.076-0.018
		l0.488-0.278v0.648c0,0.087,0.066,0.152,0.154,0.152c0.086,0,0.154-0.065,0.154-0.152v-0.638l0.474,0.268
		c0.021,0.013,0.046,0.018,0.069,0.018c0.062,0,0.109-0.025,0.139-0.078c0.042-0.075,0.015-0.169-0.061-0.211l-0.621-0.349v-1.155
		l0.984,0.57l-0.006,0.727c0,0.088,0.066,0.159,0.154,0.159c0.086,0,0.15-0.066,0.152-0.152l0.008-0.559l0.555,0.324
		c0.021,0.014,0.051,0.017,0.081,0.017c0.059,0,0.101-0.023,0.131-0.072C164.875,48.797,164.846,48.701,164.773,48.659z"/>
	<path fill="#ADC6D8" d="M158.156,47.851l-0.363-0.209l0.307-0.182c0.049-0.024,0.064-0.09,0.035-0.139
		c-0.027-0.05-0.089-0.061-0.136-0.033l-0.407,0.238l-0.648-0.377l0.648-0.373l0.407,0.238c0.013,0.01,0.029,0.016,0.047,0.016
		c0.036,0,0.066-0.017,0.089-0.048c0.029-0.05,0.014-0.115-0.035-0.139l-0.307-0.183l0.363-0.208
		c0.047-0.028,0.062-0.089,0.035-0.138c-0.025-0.049-0.089-0.065-0.138-0.037l-0.364,0.211l-0.005-0.364
		c-0.001-0.058-0.044-0.103-0.1-0.103c-0.058,0-0.101,0.049-0.101,0.103l0.004,0.48l-0.646,0.373v-0.757l0.407-0.231
		c0.047-0.026,0.067-0.09,0.039-0.138c-0.028-0.05-0.086-0.064-0.137-0.037l-0.31,0.175v-0.413c0-0.057-0.045-0.102-0.101-0.102
		c-0.058,0-0.102,0.045-0.102,0.102v0.417l-0.32-0.179c-0.049-0.027-0.105-0.013-0.134,0.037c-0.028,0.049-0.011,0.11,0.038,0.138
		l0.416,0.234v0.75l-0.658-0.38l0.004-0.47c0.006-0.054-0.042-0.103-0.098-0.103h-0.004c-0.054,0-0.101,0.045-0.102,0.103
		l-0.003,0.354l-0.355-0.204c-0.05-0.029-0.11-0.012-0.136,0.035c-0.027,0.051-0.014,0.111,0.035,0.14l0.359,0.207l-0.312,0.188
		c-0.05,0.023-0.064,0.091-0.035,0.139c0.02,0.031,0.047,0.048,0.086,0.048c0.02,0,0.036-0.006,0.053-0.016l0.41-0.242l0.656,0.377
		l-0.656,0.381l-0.41-0.242c-0.05-0.029-0.112-0.016-0.139,0.033c-0.027,0.05-0.012,0.109,0.035,0.139l0.312,0.186l-0.359,0.208
		c-0.049,0.03-0.064,0.09-0.035,0.139c0.02,0.034,0.047,0.052,0.085,0.052c0.009,0,0.027-0.006,0.051-0.016l0.355-0.203l0.003,0.354
		c0.002,0.057,0.048,0.1,0.102,0.1h0.004c0.056,0,0.098-0.047,0.098-0.104l-0.004-0.47l0.658-0.377v0.747l-0.416,0.234
		c-0.05,0.027-0.066,0.089-0.038,0.139c0.02,0.034,0.046,0.051,0.085,0.051c0.019,0,0.035-0.004,0.049-0.012l0.32-0.183v0.425
		c0,0.057,0.044,0.1,0.102,0.1c0.056,0,0.101-0.043,0.101-0.1v-0.418l0.31,0.176c0.015,0.008,0.031,0.012,0.047,0.012
		c0.041,0,0.07-0.017,0.09-0.051c0.027-0.05,0.01-0.111-0.039-0.139l-0.407-0.229v-0.757l0.646,0.374l-0.004,0.477
		c0,0.057,0.043,0.104,0.101,0.104c0.056,0,0.099-0.043,0.1-0.1l0.005-0.366l0.364,0.212c0.015,0.01,0.032,0.012,0.053,0.012
		c0.038,0,0.065-0.016,0.086-0.047C158.222,47.94,158.203,47.878,158.156,47.851z"/>
	<path fill="#ADC6D8" d="M155.576,51.783l-0.363-0.209l0.307-0.182c0.049-0.024,0.063-0.091,0.035-0.14
		c-0.027-0.049-0.09-0.06-0.137-0.033l-0.406,0.239l-0.648-0.377l0.648-0.373l0.406,0.239c0.014,0.009,0.029,0.014,0.047,0.014
		c0.037,0,0.066-0.016,0.09-0.047c0.028-0.049,0.014-0.115-0.035-0.139l-0.307-0.182l0.363-0.209
		c0.046-0.027,0.062-0.089,0.035-0.139c-0.025-0.049-0.09-0.064-0.139-0.037l-0.363,0.212l-0.006-0.364
		c0-0.057-0.043-0.102-0.1-0.102s-0.101,0.048-0.101,0.102l0.005,0.48l-0.646,0.373v-0.756l0.407-0.232
		c0.048-0.027,0.067-0.09,0.04-0.138c-0.029-0.05-0.086-0.065-0.137-0.037l-0.311,0.175V49.51c0-0.056-0.045-0.102-0.101-0.102
		c-0.058,0-0.101,0.046-0.101,0.102v0.417l-0.32-0.179c-0.05-0.027-0.106-0.013-0.135,0.037c-0.028,0.049-0.01,0.11,0.038,0.138
		l0.417,0.234v0.75l-0.659-0.38l0.004-0.47c0.006-0.054-0.042-0.102-0.098-0.102h-0.004c-0.054,0-0.101,0.045-0.101,0.102
		l-0.004,0.354l-0.355-0.205c-0.049-0.027-0.109-0.012-0.135,0.037c-0.027,0.051-0.014,0.11,0.035,0.139l0.359,0.207l-0.313,0.188
		c-0.05,0.023-0.064,0.09-0.034,0.139c0.02,0.031,0.047,0.047,0.086,0.047c0.02,0,0.035-0.004,0.052-0.014l0.41-0.242l0.657,0.376
		l-0.657,0.381l-0.41-0.243c-0.05-0.028-0.112-0.014-0.138,0.033c-0.027,0.051-0.012,0.111,0.034,0.14l0.313,0.185l-0.359,0.209
		c-0.049,0.029-0.064,0.09-0.035,0.139c0.02,0.034,0.047,0.052,0.084,0.052c0.01,0,0.027-0.006,0.051-0.015l0.355-0.205l0.004,0.354
		c0.002,0.056,0.047,0.1,0.101,0.1h0.004c0.056,0,0.098-0.048,0.098-0.104l-0.004-0.469l0.659-0.377v0.746l-0.417,0.235
		c-0.05,0.028-0.066,0.089-0.038,0.139c0.02,0.034,0.047,0.051,0.086,0.051c0.018,0,0.034-0.003,0.049-0.013l0.32-0.182v0.426
		c0,0.056,0.043,0.1,0.101,0.1c0.056,0,0.101-0.044,0.101-0.1v-0.418l0.311,0.174c0.014,0.01,0.031,0.013,0.047,0.013
		c0.041,0,0.07-0.017,0.09-0.051c0.027-0.05,0.01-0.11-0.04-0.139l-0.407-0.229v-0.757l0.646,0.373l-0.005,0.477
		c0,0.057,0.044,0.104,0.101,0.104s0.1-0.044,0.1-0.1l0.006-0.366l0.363,0.213c0.015,0.009,0.033,0.011,0.053,0.011
		c0.039,0,0.066-0.016,0.086-0.048C155.641,51.873,155.622,51.811,155.576,51.783z"/>
	<path fill="#ADC6D8" d="M152.409,48.866l-0.363-0.209l0.307-0.182c0.049-0.023,0.063-0.09,0.036-0.139
		c-0.028-0.049-0.09-0.061-0.137-0.033l-0.407,0.238l-0.648-0.377l0.648-0.373l0.407,0.239c0.013,0.009,0.029,0.015,0.047,0.015
		c0.036,0,0.066-0.016,0.09-0.047c0.027-0.05,0.013-0.115-0.036-0.139l-0.307-0.183l0.363-0.208c0.046-0.028,0.063-0.09,0.036-0.139
		c-0.026-0.049-0.09-0.064-0.139-0.037l-0.363,0.211l-0.006-0.363c0-0.058-0.043-0.103-0.1-0.103s-0.102,0.048-0.102,0.103
		l0.005,0.48l-0.646,0.373v-0.757l0.406-0.231c0.048-0.027,0.068-0.09,0.041-0.139c-0.029-0.049-0.087-0.064-0.137-0.037
		l-0.311,0.176v-0.414c0-0.056-0.045-0.102-0.102-0.102s-0.1,0.046-0.1,0.102v0.418l-0.32-0.18
		c-0.051-0.027-0.107-0.012-0.135,0.037c-0.029,0.049-0.011,0.111,0.037,0.139l0.418,0.234v0.75l-0.66-0.381l0.004-0.469
		c0.006-0.055-0.041-0.103-0.098-0.103h-0.004c-0.053,0-0.1,0.045-0.1,0.103l-0.004,0.354l-0.355-0.205
		c-0.049-0.028-0.109-0.012-0.136,0.036c-0.027,0.051-0.014,0.11,0.036,0.14l0.358,0.207l-0.313,0.188
		c-0.049,0.023-0.064,0.09-0.033,0.139c0.019,0.031,0.047,0.047,0.085,0.047c0.02,0,0.036-0.005,0.052-0.015l0.41-0.242l0.658,0.376
		l-0.658,0.381l-0.41-0.242c-0.049-0.029-0.111-0.015-0.137,0.033c-0.027,0.051-0.013,0.11,0.033,0.139l0.313,0.186l-0.358,0.209
		c-0.05,0.029-0.065,0.09-0.036,0.139c0.021,0.033,0.048,0.051,0.085,0.051c0.01,0,0.027-0.006,0.051-0.015l0.355-0.204l0.004,0.354
		c0.001,0.057,0.047,0.1,0.1,0.1h0.004c0.057,0,0.098-0.047,0.098-0.104l-0.004-0.469l0.66-0.377v0.746l-0.418,0.234
		c-0.049,0.028-0.066,0.09-0.037,0.139c0.02,0.035,0.047,0.051,0.085,0.051c0.019,0,0.034-0.003,0.05-0.012l0.32-0.182v0.425
		c0,0.056,0.043,0.1,0.1,0.1s0.102-0.044,0.102-0.1v-0.418l0.311,0.175c0.014,0.009,0.03,0.012,0.046,0.012
		c0.041,0,0.071-0.016,0.091-0.051c0.027-0.049,0.009-0.11-0.041-0.139l-0.406-0.229v-0.756l0.646,0.373l-0.005,0.477
		c0,0.057,0.045,0.104,0.102,0.104s0.1-0.043,0.1-0.1l0.006-0.365l0.363,0.212c0.014,0.009,0.033,0.011,0.053,0.011
		c0.039,0,0.066-0.016,0.086-0.047C152.475,48.956,152.455,48.894,152.409,48.866z"/>
	<path fill="#ADC6D8" d="M161.309,53.282l-0.484-0.28l0.408-0.243c0.066-0.032,0.088-0.121,0.049-0.187
		c-0.037-0.065-0.121-0.08-0.182-0.044l-0.547,0.319l-0.868-0.505l0.868-0.499l0.547,0.319c0.017,0.012,0.038,0.02,0.062,0.02
		c0.047,0,0.088-0.021,0.119-0.063c0.037-0.065,0.018-0.153-0.049-0.185l-0.408-0.245l0.484-0.279
		c0.064-0.036,0.084-0.118,0.049-0.185c-0.035-0.065-0.12-0.088-0.187-0.05l-0.485,0.283l-0.009-0.487
		c0-0.077-0.058-0.137-0.133-0.137c-0.077,0-0.136,0.064-0.136,0.137l0.006,0.643l-0.863,0.5v-1.014l0.544-0.311
		c0.063-0.035,0.091-0.119,0.054-0.185c-0.039-0.066-0.116-0.087-0.184-0.05l-0.414,0.234v-0.553c0-0.075-0.062-0.137-0.137-0.137
		s-0.135,0.062-0.135,0.137v0.559l-0.428-0.24c-0.066-0.036-0.145-0.016-0.182,0.05s-0.013,0.148,0.052,0.185l0.558,0.314v1.005
		l-0.882-0.509l0.005-0.629c0.008-0.072-0.057-0.137-0.131-0.137h-0.005c-0.071,0-0.134,0.06-0.136,0.137l-0.003,0.473l-0.478-0.273
		c-0.064-0.038-0.146-0.016-0.182,0.048c-0.036,0.068-0.018,0.148,0.049,0.187l0.479,0.277l-0.419,0.252
		c-0.066,0.031-0.086,0.12-0.047,0.185c0.026,0.042,0.064,0.063,0.115,0.063c0.027,0,0.049-0.006,0.07-0.02l0.55-0.324l0.88,0.504
		l-0.88,0.51l-0.55-0.324c-0.066-0.039-0.149-0.02-0.186,0.044c-0.036,0.067-0.016,0.147,0.047,0.187l0.419,0.248l-0.479,0.279
		c-0.066,0.039-0.088,0.121-0.049,0.186c0.026,0.047,0.062,0.069,0.113,0.069c0.014,0,0.037-0.008,0.068-0.021l0.478-0.273
		l0.003,0.475c0.002,0.075,0.064,0.133,0.136,0.133h0.005c0.074,0,0.131-0.062,0.131-0.139l-0.005-0.629l0.882-0.505v1.001
		l-0.558,0.314c-0.065,0.037-0.09,0.119-0.052,0.186c0.026,0.045,0.063,0.068,0.115,0.068c0.025,0,0.047-0.005,0.066-0.018
		l0.428-0.243v0.569c0,0.075,0.06,0.133,0.135,0.133s0.137-0.058,0.137-0.133V53.9l0.414,0.233c0.02,0.013,0.042,0.018,0.063,0.018
		c0.053,0,0.094-0.023,0.12-0.068c0.037-0.066,0.012-0.148-0.054-0.186l-0.544-0.306v-1.015l0.863,0.5l-0.006,0.639
		c0,0.076,0.059,0.139,0.136,0.139c0.075,0,0.133-0.058,0.133-0.133l0.009-0.49l0.485,0.285c0.02,0.012,0.045,0.014,0.072,0.014
		c0.052,0,0.087-0.021,0.115-0.062C161.397,53.402,161.373,53.318,161.309,53.282z"/>
	<path fill="#ADC6D8" d="M159.908,57.261c0.543-0.8,5.09-1.92,5.368-5.773c0.173-2.387,11.127,5.553,16.813,5.676
		c1.338,0.029,1.575,1.791,0.097,1.802c-4.919,0.031-17.782-0.048-21.507-0.065C160.059,58.896,159.361,58.063,159.908,57.261z"/>
</g>
<linearGradient id="SVGID_9_" gradientUnits="userSpaceOnUse" x1="-65.3906" y1="36" x2="-65.3906" y2="36">
	<stop  offset="0" style="stop-color:#E6E6E6"/>
	<stop  offset="1" style="stop-color:#B3B3B3"/>
</linearGradient>
<path fill="url(#SVGID_9_)" d="M-65.391,36"/>
<g>
	<path fill="#CCCCCC" d="M90.955,125.729H77.277c-1.352,0-2.451-1.239-2.451-2.76c0-1.522,1.1-2.761,2.451-2.761
		c0.502,0,0.908,0.458,0.908,1.023c0,0.563-0.406,1.022-0.908,1.022c-0.35,0-0.635,0.318-0.635,0.715
		c0,0.394,0.285,0.714,0.635,0.714h13.678c0.502,0,0.908,0.458,0.908,1.022C91.863,125.271,91.457,125.729,90.955,125.729"/>
	<path fill="#CCCCCC" d="M72.43,123.615c0.502,0,0.908,0.457,0.908,1.022c0,0.564-0.406,1.022-0.908,1.022
		c-0.352,0-0.635,0.32-0.635,0.715c0,0.393,0.283,0.714,0.635,0.714h6.752h6.926h5.662c0.502,0,0.91,0.458,0.91,1.022
		c0,0.565-0.408,1.023-0.91,1.023h-5.662h-6.926H72.43c-1.352,0-2.451-1.237-2.451-2.76S71.078,123.615,72.43,123.615"/>
	<path fill="#CCCCCC" d="M74.914,130.495h0.545h13.133h0.545c0.502,0,0.908,0.459,0.908,1.023s-0.406,1.021-0.908,1.021h-0.545
		H75.459h-0.545c-0.35,0-0.635,0.32-0.635,0.716c0,0.394,0.285,0.713,0.635,0.713c0.502,0,0.908,0.459,0.908,1.023
		c0,0.565-0.406,1.023-0.908,1.023c-1.354,0-2.453-1.239-2.453-2.76C72.461,131.734,73.561,130.495,74.914,130.495"/>
</g>
<path fill="#ADC6D8" d="M67.189,125.527l-0.867-0.5l0.732-0.435c0.117-0.058,0.154-0.216,0.086-0.333
	c-0.066-0.118-0.213-0.145-0.326-0.079l-0.975,0.571l-1.553-0.902l1.553-0.893l0.975,0.571c0.029,0.021,0.07,0.035,0.113,0.035
	c0.084,0,0.158-0.039,0.213-0.114c0.066-0.117,0.031-0.274-0.086-0.33l-0.732-0.438l0.867-0.499
	c0.113-0.065,0.152-0.212,0.086-0.331c-0.061-0.116-0.213-0.155-0.33-0.088l-0.871,0.506l-0.012-0.871
	c-0.002-0.138-0.105-0.244-0.24-0.244c-0.137,0-0.24,0.115-0.24,0.244l0.01,1.148l-1.545,0.895v-1.811l0.975-0.555
	c0.111-0.064,0.162-0.215,0.094-0.331c-0.068-0.119-0.207-0.155-0.326-0.089l-0.742,0.42v-0.99c0-0.134-0.107-0.243-0.242-0.243
	c-0.137,0-0.24,0.109-0.24,0.243v0.998l-0.768-0.428c-0.119-0.064-0.254-0.029-0.32,0.089c-0.068,0.117-0.027,0.265,0.09,0.331
	l0.998,0.561v1.795l-1.578-0.91l0.01-1.123c0.014-0.129-0.1-0.244-0.234-0.244h-0.01c-0.127,0-0.238,0.106-0.24,0.244l-0.008,0.846
	l-0.85-0.49c-0.119-0.067-0.264-0.027-0.326,0.087c-0.066,0.122-0.033,0.265,0.086,0.333l0.857,0.496l-0.748,0.449
	c-0.117,0.056-0.154,0.215-0.082,0.33c0.045,0.075,0.113,0.114,0.205,0.114c0.047,0,0.086-0.012,0.125-0.035l0.98-0.58l1.574,0.901
	l-1.574,0.912l-0.98-0.581c-0.117-0.069-0.268-0.035-0.33,0.079c-0.066,0.121-0.029,0.264,0.082,0.333l0.748,0.443l-0.857,0.499
	c-0.119,0.07-0.156,0.215-0.086,0.332c0.047,0.082,0.113,0.123,0.203,0.123c0.023,0,0.066-0.014,0.123-0.036l0.85-0.488l0.008,0.847
	c0.004,0.135,0.113,0.239,0.24,0.239h0.01c0.135,0,0.234-0.113,0.234-0.249l-0.01-1.123l1.578-0.902v1.787l-0.998,0.562
	c-0.119,0.067-0.16,0.214-0.09,0.331c0.047,0.083,0.111,0.123,0.203,0.123c0.045,0,0.084-0.008,0.117-0.029l0.768-0.436v1.018
	c0,0.135,0.104,0.238,0.24,0.238c0.135,0,0.242-0.104,0.242-0.238v-1l0.742,0.418c0.033,0.021,0.074,0.029,0.111,0.029
	c0.098,0,0.17-0.04,0.215-0.123c0.066-0.117,0.023-0.264-0.094-0.331l-0.975-0.546v-1.812l1.545,0.895l-0.01,1.141
	c0,0.136,0.104,0.249,0.24,0.249c0.135,0,0.238-0.104,0.24-0.239l0.012-0.876l0.871,0.509c0.033,0.021,0.078,0.026,0.127,0.026
	c0.092,0,0.158-0.038,0.205-0.113C67.348,125.742,67.303,125.593,67.189,125.527z"/>
<path fill="#ADC6D8" d="M56.797,126.527l-0.867-0.5l0.732-0.435c0.117-0.058,0.154-0.216,0.086-0.333
	c-0.066-0.118-0.213-0.145-0.326-0.079l-0.975,0.571l-1.553-0.902l1.553-0.893l0.975,0.571c0.029,0.021,0.07,0.035,0.113,0.035
	c0.084,0,0.158-0.039,0.213-0.114c0.066-0.117,0.031-0.274-0.086-0.33l-0.732-0.438l0.867-0.499
	c0.113-0.065,0.152-0.212,0.086-0.331c-0.061-0.116-0.213-0.155-0.33-0.088l-0.871,0.506l-0.012-0.871
	c-0.002-0.138-0.105-0.244-0.24-0.244c-0.137,0-0.24,0.115-0.24,0.244l0.01,1.148l-1.545,0.895v-1.811l0.975-0.555
	c0.111-0.064,0.162-0.215,0.094-0.331c-0.068-0.119-0.207-0.155-0.326-0.089l-0.742,0.42v-0.99c0-0.134-0.107-0.243-0.242-0.243
	c-0.137,0-0.24,0.109-0.24,0.243v0.998l-0.768-0.428c-0.119-0.064-0.254-0.029-0.32,0.089c-0.068,0.117-0.027,0.265,0.09,0.331
	l0.998,0.561v1.795l-1.578-0.91l0.01-1.123c0.014-0.129-0.1-0.244-0.234-0.244h-0.01c-0.127,0-0.238,0.106-0.24,0.244l-0.008,0.846
	l-0.85-0.49c-0.119-0.067-0.264-0.027-0.326,0.087c-0.066,0.122-0.033,0.265,0.086,0.333l0.857,0.496l-0.748,0.449
	c-0.117,0.056-0.154,0.215-0.082,0.33c0.045,0.075,0.113,0.114,0.205,0.114c0.047,0,0.086-0.012,0.125-0.035l0.98-0.58l1.574,0.901
	l-1.574,0.912l-0.98-0.581c-0.117-0.069-0.268-0.035-0.33,0.079c-0.066,0.121-0.029,0.264,0.082,0.333l0.748,0.443l-0.857,0.499
	c-0.119,0.07-0.156,0.215-0.086,0.332c0.047,0.082,0.113,0.123,0.203,0.123c0.023,0,0.066-0.014,0.123-0.036l0.85-0.488l0.008,0.847
	c0.004,0.135,0.113,0.239,0.24,0.239h0.01c0.135,0,0.234-0.113,0.234-0.249l-0.01-1.123l1.578-0.902v1.787l-0.998,0.562
	c-0.119,0.067-0.16,0.214-0.09,0.331c0.047,0.083,0.111,0.123,0.203,0.123c0.045,0,0.084-0.008,0.117-0.029l0.768-0.436v1.018
	c0,0.135,0.104,0.238,0.24,0.238c0.135,0,0.242-0.104,0.242-0.238v-1l0.742,0.418c0.033,0.021,0.074,0.029,0.111,0.029
	c0.098,0,0.17-0.04,0.215-0.123c0.066-0.117,0.023-0.264-0.094-0.331l-0.975-0.546v-1.812l1.545,0.895l-0.01,1.141
	c0,0.136,0.104,0.249,0.24,0.249c0.135,0,0.238-0.104,0.24-0.239l0.012-0.876l0.871,0.509c0.033,0.021,0.078,0.026,0.127,0.026
	c0.092,0,0.158-0.038,0.205-0.113C56.955,126.742,56.91,126.593,56.797,126.527z"/>
<path fill="#ADC6D8" d="M62.803,133.247l-0.639-0.368l0.537-0.32c0.088-0.042,0.115-0.158,0.064-0.245
	c-0.049-0.087-0.158-0.105-0.24-0.058l-0.717,0.42l-1.143-0.664l1.143-0.656l0.717,0.42c0.023,0.016,0.051,0.026,0.084,0.026
	c0.061,0,0.115-0.029,0.156-0.084c0.049-0.087,0.023-0.202-0.064-0.243l-0.537-0.322l0.639-0.367
	c0.082-0.049,0.109-0.156,0.062-0.244c-0.045-0.085-0.158-0.114-0.244-0.064l-0.641,0.373l-0.01-0.642
	c0-0.102-0.076-0.181-0.176-0.181s-0.178,0.086-0.178,0.181l0.008,0.846l-1.135,0.657v-1.332l0.715-0.408
	c0.084-0.049,0.119-0.158,0.07-0.244c-0.051-0.088-0.152-0.113-0.24-0.064l-0.545,0.309v-0.729c0-0.1-0.082-0.18-0.18-0.18
	c-0.1,0-0.178,0.08-0.178,0.18v0.734l-0.562-0.314c-0.088-0.049-0.189-0.021-0.238,0.064c-0.051,0.086-0.018,0.195,0.066,0.244
	l0.734,0.412v1.322l-1.16-0.67l0.006-0.827c0.01-0.095-0.074-0.181-0.172-0.181h-0.006c-0.094,0-0.176,0.079-0.178,0.181
	l-0.006,0.622l-0.627-0.36c-0.086-0.05-0.193-0.021-0.24,0.063c-0.047,0.09-0.023,0.195,0.064,0.245l0.631,0.365l-0.551,0.331
	c-0.088,0.041-0.113,0.158-0.061,0.243c0.033,0.055,0.084,0.084,0.15,0.084c0.035,0,0.064-0.009,0.092-0.026l0.725-0.427
	l1.156,0.663l-1.156,0.671l-0.725-0.427c-0.086-0.052-0.195-0.026-0.242,0.058c-0.049,0.089-0.021,0.194,0.061,0.245l0.551,0.326
	l-0.631,0.368c-0.088,0.052-0.115,0.158-0.064,0.244c0.035,0.061,0.084,0.091,0.15,0.091c0.018,0,0.049-0.01,0.09-0.027l0.627-0.359
	l0.006,0.624c0.002,0.099,0.084,0.175,0.178,0.175h0.006c0.098,0,0.172-0.082,0.172-0.183l-0.006-0.826l1.16-0.665v1.316
	l-0.734,0.413c-0.086,0.049-0.117,0.157-0.066,0.244c0.033,0.06,0.082,0.09,0.15,0.09c0.033,0,0.062-0.006,0.088-0.021l0.562-0.32
	v0.749c0,0.099,0.078,0.175,0.178,0.175c0.098,0,0.18-0.076,0.18-0.175v-0.736l0.545,0.308c0.023,0.016,0.055,0.021,0.082,0.021
	c0.07,0,0.123-0.03,0.158-0.09c0.049-0.087,0.016-0.195-0.07-0.244l-0.715-0.401v-1.334l1.135,0.657l-0.008,0.84
	c0,0.101,0.078,0.183,0.178,0.183s0.176-0.076,0.176-0.175l0.01-0.646l0.641,0.375c0.025,0.016,0.059,0.02,0.094,0.02
	c0.068,0,0.115-0.027,0.152-0.084C62.918,133.405,62.885,133.295,62.803,133.247z"/>
<linearGradient id="SVGID_10_" gradientUnits="userSpaceOnUse" x1="70.959" y1="86.0283" x2="70.959" y2="115.0059">
	<stop  offset="0" style="stop-color:#E6E6E6"/>
	<stop  offset="1" style="stop-color:#B3B3B3"/>
</linearGradient>
<path fill="url(#SVGID_10_)" d="M94.4,105.889c0-4.502-3.369-8.3-7.764-8.949c-1.561-6.248-7.209-10.911-13.941-10.911
	c-4.51,0-8.531,2.062-11.166,5.313c-0.771-0.421-1.658-0.67-2.604-0.67c-2.975,0-5.387,2.369-5.387,5.295
	c0,0.445,0.062,0.873,0.168,1.286c-3.598,1.205-6.189,4.554-6.189,8.499c0,4.959,4.09,9.117,9.131,9.117
	c0.076,0,0.152,0.131,0.229,0.131h15.598c0.072,0,0.146,0.006,0.221,0.006c0.076,0,0.15-0.006,0.225-0.006h12.121
	c0.074,0,0.15,0.006,0.227,0.006S85.418,115,85.494,115h0.004l0,0C90.436,115,94.4,110.771,94.4,105.889z"/>
<g>
	<path fill="#CCCCCC" d="M-60.335,44.802h-13.678c-1.352,0-2.451-1.239-2.451-2.76c0-1.522,1.1-2.761,2.451-2.761
		c0.502,0,0.908,0.458,0.908,1.023c0,0.563-0.406,1.022-0.908,1.022c-0.35,0-0.635,0.318-0.635,0.715
		c0,0.394,0.285,0.714,0.635,0.714h13.678c0.502,0,0.908,0.458,0.908,1.022C-59.427,44.344-59.833,44.802-60.335,44.802"/>
	<path fill="#CCCCCC" d="M-78.86,42.688c0.502,0,0.908,0.457,0.908,1.022c0,0.564-0.406,1.022-0.908,1.022
		c-0.352,0-0.635,0.32-0.635,0.715c0,0.393,0.283,0.714,0.635,0.714h6.752h6.926h5.662c0.502,0,0.91,0.458,0.91,1.022
		c0,0.565-0.408,1.022-0.91,1.022h-5.662h-6.926h-6.752c-1.352,0-2.451-1.236-2.451-2.759S-80.212,42.688-78.86,42.688"/>
	<path fill="#CCCCCC" d="M-76.376,49.568h0.545h13.133h0.545c0.502,0,0.908,0.459,0.908,1.023s-0.406,1.021-0.908,1.021h-0.545
		h-13.133h-0.545c-0.35,0-0.635,0.32-0.635,0.715s0.285,0.713,0.635,0.713c0.502,0,0.908,0.459,0.908,1.023
		c0,0.566-0.406,1.023-0.908,1.023c-1.354,0-2.453-1.238-2.453-2.76S-77.729,49.568-76.376,49.568"/>
</g>
<path fill="#ADC6D8" d="M-84.101,44.601l-0.867-0.5l0.732-0.435c0.117-0.058,0.154-0.216,0.086-0.333
	c-0.066-0.118-0.213-0.145-0.326-0.079l-0.975,0.571l-1.553-0.902l1.553-0.893l0.975,0.571c0.029,0.021,0.07,0.035,0.113,0.035
	c0.084,0,0.158-0.039,0.213-0.114c0.066-0.117,0.031-0.274-0.086-0.33l-0.732-0.438l0.867-0.499
	c0.113-0.065,0.152-0.212,0.086-0.331c-0.061-0.116-0.213-0.155-0.33-0.088l-0.871,0.506l-0.012-0.871
	c-0.002-0.138-0.105-0.244-0.24-0.244c-0.137,0-0.24,0.115-0.24,0.244l0.01,1.148l-1.545,0.895v-1.811l0.975-0.555
	c0.111-0.064,0.162-0.215,0.094-0.331c-0.068-0.119-0.207-0.155-0.326-0.089l-0.742,0.42v-0.99c0-0.134-0.107-0.243-0.242-0.243
	c-0.137,0-0.24,0.109-0.24,0.243v0.998l-0.768-0.428c-0.119-0.064-0.254-0.029-0.32,0.089c-0.068,0.117-0.027,0.265,0.09,0.331
	l0.998,0.561v1.795l-1.578-0.91l0.01-1.123c0.014-0.129-0.1-0.244-0.234-0.244h-0.01c-0.127,0-0.238,0.106-0.24,0.244l-0.008,0.846
	l-0.85-0.49c-0.119-0.067-0.264-0.027-0.326,0.087c-0.066,0.122-0.033,0.265,0.086,0.333l0.857,0.496l-0.748,0.449
	c-0.117,0.056-0.154,0.215-0.082,0.33c0.045,0.075,0.113,0.114,0.205,0.114c0.047,0,0.086-0.012,0.125-0.035l0.98-0.58l1.574,0.901
	l-1.574,0.912l-0.98-0.581c-0.117-0.069-0.268-0.035-0.33,0.079c-0.066,0.121-0.029,0.264,0.082,0.333l0.748,0.443l-0.857,0.499
	c-0.119,0.07-0.156,0.215-0.086,0.332c0.047,0.082,0.113,0.123,0.203,0.123c0.023,0,0.066-0.014,0.123-0.036l0.85-0.488l0.008,0.847
	c0.004,0.135,0.113,0.239,0.24,0.239h0.01c0.135,0,0.234-0.113,0.234-0.249l-0.01-1.123l1.578-0.902v1.787l-0.998,0.562
	c-0.119,0.067-0.16,0.214-0.09,0.331c0.047,0.083,0.111,0.123,0.203,0.123c0.045,0,0.084-0.008,0.117-0.029l0.768-0.436v1.018
	c0,0.135,0.104,0.238,0.24,0.238c0.135,0,0.242-0.104,0.242-0.238v-1l0.742,0.418c0.033,0.021,0.074,0.029,0.111,0.029
	c0.098,0,0.17-0.04,0.215-0.123c0.066-0.117,0.023-0.264-0.094-0.331l-0.975-0.546v-1.812l1.545,0.895l-0.01,1.141
	c0,0.136,0.104,0.249,0.24,0.249c0.135,0,0.238-0.104,0.24-0.239l0.012-0.876l0.871,0.509c0.033,0.021,0.078,0.026,0.127,0.026
	c0.092,0,0.158-0.038,0.205-0.113C-83.942,44.815-83.987,44.666-84.101,44.601z"/>
<path fill="#ADC6D8" d="M-94.493,45.601l-0.867-0.5l0.732-0.435c0.117-0.058,0.154-0.216,0.086-0.333
	c-0.066-0.118-0.213-0.145-0.326-0.079l-0.975,0.571l-1.553-0.902l1.553-0.893l0.975,0.571c0.029,0.021,0.07,0.035,0.113,0.035
	c0.084,0,0.158-0.039,0.213-0.114c0.066-0.117,0.031-0.274-0.086-0.33l-0.732-0.438l0.867-0.499
	c0.113-0.065,0.152-0.212,0.086-0.331c-0.061-0.116-0.213-0.155-0.33-0.088l-0.871,0.506l-0.012-0.871
	c-0.002-0.138-0.105-0.244-0.24-0.244c-0.137,0-0.24,0.115-0.24,0.244l0.01,1.148l-1.545,0.895v-1.811l0.975-0.555
	c0.111-0.064,0.162-0.215,0.094-0.331c-0.068-0.119-0.207-0.155-0.326-0.089l-0.742,0.42v-0.99c0-0.134-0.107-0.243-0.242-0.243
	c-0.137,0-0.24,0.109-0.24,0.243v0.998l-0.768-0.428c-0.119-0.064-0.254-0.029-0.32,0.089c-0.068,0.117-0.027,0.265,0.09,0.331
	l0.998,0.561v1.795l-1.578-0.91l0.01-1.123c0.014-0.129-0.1-0.244-0.234-0.244h-0.01c-0.127,0-0.238,0.106-0.24,0.244l-0.008,0.846
	l-0.85-0.49c-0.119-0.067-0.264-0.027-0.326,0.087c-0.066,0.122-0.033,0.265,0.086,0.333l0.857,0.496l-0.748,0.449
	c-0.117,0.056-0.154,0.215-0.082,0.33c0.045,0.075,0.113,0.114,0.205,0.114c0.047,0,0.086-0.012,0.125-0.035l0.98-0.58l1.574,0.901
	l-1.574,0.912l-0.98-0.581c-0.117-0.069-0.268-0.035-0.33,0.079c-0.066,0.121-0.029,0.264,0.082,0.333l0.748,0.443l-0.857,0.499
	c-0.119,0.07-0.156,0.215-0.086,0.332c0.047,0.082,0.113,0.123,0.203,0.123c0.023,0,0.066-0.014,0.123-0.036l0.85-0.488l0.008,0.847
	c0.004,0.135,0.113,0.239,0.24,0.239h0.01c0.135,0,0.234-0.113,0.234-0.249l-0.01-1.123l1.578-0.902v1.787l-0.998,0.562
	c-0.119,0.067-0.16,0.214-0.09,0.331c0.047,0.083,0.111,0.123,0.203,0.123c0.045,0,0.084-0.008,0.117-0.029l0.768-0.436v1.018
	c0,0.135,0.104,0.238,0.24,0.238c0.135,0,0.242-0.104,0.242-0.238v-1l0.742,0.418c0.033,0.021,0.074,0.029,0.111,0.029
	c0.098,0,0.17-0.04,0.215-0.123c0.066-0.117,0.023-0.264-0.094-0.331l-0.975-0.546v-1.812l1.545,0.895l-0.01,1.141
	c0,0.136,0.104,0.249,0.24,0.249c0.135,0,0.238-0.104,0.24-0.239l0.012-0.876l0.871,0.509c0.033,0.021,0.078,0.026,0.127,0.026
	c0.092,0,0.158-0.038,0.205-0.113C-94.335,45.815-94.38,45.666-94.493,45.601z"/>
<path fill="#ADC6D8" d="M-88.487,52.32l-0.639-0.369l0.537-0.32c0.088-0.041,0.115-0.158,0.064-0.244
	c-0.049-0.088-0.158-0.105-0.24-0.059l-0.717,0.42l-1.143-0.664l1.143-0.656l0.717,0.42c0.023,0.016,0.051,0.027,0.084,0.027
	c0.061,0,0.115-0.029,0.156-0.084c0.049-0.088,0.023-0.203-0.064-0.244l-0.537-0.322l0.639-0.367
	c0.082-0.049,0.109-0.156,0.062-0.244c-0.045-0.084-0.158-0.113-0.244-0.064l-0.641,0.373l-0.01-0.641
	c0-0.102-0.076-0.182-0.176-0.182s-0.178,0.086-0.178,0.182l0.008,0.846l-1.135,0.656v-1.332l0.715-0.408
	c0.084-0.049,0.119-0.158,0.07-0.244c-0.051-0.088-0.152-0.113-0.24-0.064l-0.545,0.309v-0.729c0-0.1-0.082-0.18-0.18-0.18
	c-0.1,0-0.178,0.08-0.178,0.18v0.734l-0.562-0.314c-0.088-0.049-0.189-0.021-0.238,0.064c-0.051,0.086-0.018,0.195,0.066,0.244
	l0.734,0.412v1.322l-1.16-0.67l0.006-0.826c0.01-0.096-0.074-0.182-0.172-0.182h-0.006c-0.094,0-0.176,0.08-0.178,0.182
	l-0.006,0.621l-0.627-0.359c-0.086-0.051-0.193-0.021-0.24,0.062c-0.047,0.09-0.023,0.195,0.064,0.246l0.631,0.365l-0.551,0.33
	c-0.088,0.041-0.113,0.158-0.061,0.244c0.033,0.055,0.084,0.084,0.15,0.084c0.035,0,0.064-0.01,0.092-0.027l0.725-0.426l1.156,0.662
	l-1.156,0.672l-0.725-0.428c-0.086-0.051-0.195-0.025-0.242,0.059c-0.049,0.088-0.021,0.193,0.061,0.244l0.551,0.326l-0.631,0.369
	c-0.088,0.051-0.115,0.158-0.064,0.244c0.035,0.061,0.084,0.09,0.15,0.09c0.018,0,0.049-0.01,0.09-0.027l0.627-0.359l0.006,0.625
	c0.002,0.098,0.084,0.174,0.178,0.174h0.006c0.098,0,0.172-0.082,0.172-0.182l-0.006-0.826l1.16-0.666v1.316l-0.734,0.414
	c-0.086,0.049-0.117,0.156-0.066,0.244c0.033,0.059,0.082,0.09,0.15,0.09c0.033,0,0.062-0.006,0.088-0.021l0.562-0.32v0.748
	c0,0.1,0.078,0.176,0.178,0.176c0.098,0,0.18-0.076,0.18-0.176v-0.736l0.545,0.309c0.023,0.016,0.055,0.021,0.082,0.021
	c0.07,0,0.123-0.031,0.158-0.09c0.049-0.088,0.016-0.195-0.07-0.244l-0.715-0.402v-1.334l1.135,0.658l-0.008,0.84
	c0,0.1,0.078,0.182,0.178,0.182s0.176-0.076,0.176-0.174l0.01-0.646l0.641,0.375c0.025,0.016,0.059,0.02,0.094,0.02
	c0.068,0,0.115-0.027,0.152-0.084C-88.372,52.479-88.405,52.367-88.487,52.32z"/>
<g>
	<path fill="#FFE89D" d="M-62.384,81.466c6.559,0,11.875,5.316,11.875,11.875c0,2.147-0.578,4.156-1.575,5.895
		c0.401,0.647,0.645,1.4,0.645,2.214c0,0.055-0.001,0.109-0.003,0.164c0.207,0.1,0.399,0.22,0.592,0.339
		c1.424-0.244,2.34-0.439,2.34-0.439s-0.674-2.083-1.763-4.76c2.282-1.773,3.907-3.24,3.907-3.24s-1.625-1.467-3.908-3.241
		c1.09-2.677,1.764-4.759,1.764-4.759s-2.141-0.459-5.003-0.854c-0.395-2.863-0.853-5.004-0.853-5.004s-2.082,0.673-4.759,1.763
		c-1.772-2.282-3.239-3.906-3.239-3.906s-1.468,1.625-3.241,3.907c-2.679-1.09-4.763-1.764-4.763-1.764s-0.458,2.141-0.853,5.005
		c-1.643,0.227-3.03,0.472-3.93,0.642c1.158,0.141,2.271,0.436,3.318,0.866C-69.663,83.315-66.244,81.466-62.384,81.466z"/>
	<path fill="#FFD43F" d="M-64.4,94.298c0.044-0.001,0.087-0.006,0.131-0.006c2.736,0,5.31,1.118,7.173,3.092
		c0.428-0.137,0.878-0.207,1.33-0.207c1.562,0,2.922,0.829,3.683,2.059c0.997-1.738,1.575-3.747,1.575-5.895
		c0-6.559-5.316-11.875-11.875-11.875c-3.86,0-7.279,1.85-9.448,4.702C-68.319,87.611-65.556,90.562-64.4,94.298z"/>
	<path fill="none" d="M-61.8,99.528c0,0.497-0.107,0.969-0.295,1.397c1.791,0.634,3.086,2.846,3.086,4.9
		c0,2.59-2.043,5.174-4.562,5.174c-0.021,0-0.062,0-0.062,0s-6.502,0-12.703,0c1.006,1,2.518,2,4.216,2h0.002
		c0.046,0,0.093,0.004,0.14,0.004c0.048,0,0.094-0.004,0.14-0.004h7.485c0.047,0,0.092,0.004,0.139,0.004
		c0.045,0,0.092-0.004,0.138-0.004h9.632c0.046,0,0.093,0.021,0.141,0.021c3.114,0,5.638-2.473,5.638-5.534
		c0-2.437-1.6-4.503-3.82-5.247c0.064-0.254,0.104-0.519,0.104-0.793c0-1.808-1.49-3.271-3.328-3.271
		c-0.582,0-1.131,0.148-1.607,0.408c-1.627-2.008-4.11-3.292-6.896-3.292c-0.314,0-0.625,0.022-0.932,0.055
		c0.057,0.235,0.115,0.471,0.156,0.712C-63.205,96.218-61.8,97.701-61.8,99.528z"/>
	<g>
		
			<linearGradient id="SVGID_11_" gradientUnits="userSpaceOnUse" x1="-2945.9849" y1="95.2881" x2="-2945.9849" y2="113.0205" gradientTransform="matrix(-1 0 0 1 -3009.1279 0)">
			<stop  offset="0" style="stop-color:#E6E6E6"/>
			<stop  offset="1" style="stop-color:#B3B3B3"/>
		</linearGradient>
		<path fill="url(#SVGID_11_)" d="M-77.619,107.475c0-2.779,2.081-5.072,4.795-5.473c0.963-3.859,4.451-6.713,8.608-6.713
			c2.785,0,5.269,1.286,6.896,3.293c0.477-0.259,1.025-0.406,1.607-0.406c1.838,0,3.328,1.465,3.328,3.273
			c0,0.273-0.039,0.54-0.104,0.795c2.221,0.744,3.82,2.813,3.82,5.25c0,3.062-2.523,5.527-5.638,5.527
			c-0.048,0-0.095-0.021-0.141-0.021h-9.632c-0.046,0-0.093,0.004-0.138,0.004c-0.047,0-0.092-0.004-0.139-0.004h-7.485
			c-0.046,0-0.092,0.004-0.14,0.004c-0.047,0-0.094-0.004-0.14-0.004h-0.002l0,0C-75.169,113-77.619,110.492-77.619,107.475z"/>
		<linearGradient id="SVGID_12_" gradientUnits="userSpaceOnUse" x1="-78.5283" y1="86.1953" x2="-78.5283" y2="111">
			<stop  offset="0" style="stop-color:#CCCCCC"/>
			<stop  offset="1" style="stop-color:#999999"/>
		</linearGradient>
		<path fill="url(#SVGID_12_)" d="M-73.618,101.149c1.176-3.684,4.387-6.311,8.195-6.775c-1.569-4.748-6.022-8.179-11.295-8.179
			c-4.768,0-8.869,2.806-10.774,6.852c-1.842,0.101-3.309,1.613-3.309,3.481c0,0.904,0.353,1.721,0.917,2.343
			c-1.083,1.186-1.75,3.244-1.75,4.977c0,3.457,2.75,7.152,6,7.152c1.816,0,4.832,0,8.056,0c-0.656-1-1.041-2.221-1.041-3.523
			C-78.619,104.482-76.511,101.878-73.618,101.149z"/>
	</g>
</g>
<linearGradient id="SVGID_13_" gradientUnits="userSpaceOnUse" x1="107" y1="-99" x2="107" y2="-39">
	<stop  offset="0" style="stop-color:#003D6A;stop-opacity:0.7"/>
	<stop  offset="1" style="stop-color:#003D6A"/>
</linearGradient>
<circle fill="url(#SVGID_13_)" cx="107" cy="-69" r="30"/>
<g>
	
		<linearGradient id="SVGID_14_" gradientUnits="userSpaceOnUse" x1="-3122.1196" y1="-80.4478" x2="-3122.1196" y2="-62.8281" gradientTransform="matrix(-1 0 0 1 -3009.1279 0)">
		<stop  offset="0" style="stop-color:#E6E6E6"/>
		<stop  offset="1" style="stop-color:#B3B3B3"/>
	</linearGradient>
	<path fill="url(#SVGID_14_)" d="M98.516-68.375c0-2.779,2.08-4.997,4.795-5.397c0.963-3.859,4.451-6.675,8.609-6.675
		c2.784,0,5.268,1.306,6.895,3.312c0.477-0.259,1.025-0.397,1.607-0.397c1.838,0,3.328,1.47,3.328,3.277
		c0,0.274-0.039,0.542-0.104,0.797c2.221,0.744,3.82,2.815,3.82,5.252c0,3.062-2.523,5.378-5.638,5.378
		c-0.048,0-0.095-0.172-0.141-0.172h-9.632c-0.045,0-0.092,0.004-0.137,0.004c-0.047,0-0.092-0.004-0.139-0.004h-7.486
		c-0.045,0-0.092,0.004-0.139,0.004S104.062-63,104.016-63h-0.002l0,0C100.965-63,98.516-65.357,98.516-68.375z"/>
	<linearGradient id="SVGID_15_" gradientUnits="userSpaceOnUse" x1="97.6055" y1="-89.5034" x2="97.6055" y2="-65">
		<stop  offset="0" style="stop-color:#CCCCCC"/>
		<stop  offset="1" style="stop-color:#999999"/>
	</linearGradient>
	<path fill="url(#SVGID_15_)" d="M102.516-74.55c1.176-3.683,4.387-6.31,8.195-6.775c-1.568-4.748-6.021-8.179-11.295-8.179
		c-4.768,0-8.869,2.806-10.773,6.852c-1.842,0.101-3.309,1.613-3.309,3.481c0,0.904,0.352,1.721,0.916,2.342
		c-1.083,1.186-1.75,3.094-1.75,4.826c0,3.457,2.75,7.002,6,7.002c1.816,0,4.832,0,8.057,0c-0.656-1-1.041-2.07-1.041-3.373
		C97.516-71.367,99.623-73.821,102.516-74.55z"/>
	<path fill="#FFFFFF" d="M129.441-79.906c0.107-0.216,0.062-0.476-0.107-0.645c-0.17-0.171-0.429-0.213-0.645-0.108
		c-1.21,0.599-2.567,0.913-3.924,0.913c-2.367,0-4.591-0.92-6.265-2.595c-2.687-2.686-3.361-6.78-1.682-10.187
		c0.106-0.217,0.063-0.475-0.105-0.645c-0.17-0.171-0.431-0.213-0.646-0.107c-0.981,0.485-1.872,1.123-2.644,1.895
		c-1.887,1.887-2.925,4.395-2.925,7.062c0,0.055,0.007,0.108,0.008,0.164c0.508,0.858,0.925,1.78,1.229,2.757
		c0.043,0,0.085-0.005,0.128-0.005c2.735,0,5.31,1.118,7.173,3.092c0.428-0.137,0.878-0.207,1.33-0.207
		c2.048,0,3.759,1.416,4.205,3.304c1.092-0.49,2.102-1.172,2.975-2.043C128.319-78.036,128.957-78.924,129.441-79.906z"/>
</g>
<g>
	<path fill="#ADC6D8" d="M-80.522-36.135l-0.865-0.501l0.73-0.434c0.118-0.059,0.156-0.217,0.088-0.334s-0.214-0.145-0.326-0.078
		l-0.976,0.57l-1.552-0.902l1.552-0.893l0.976,0.572c0.03,0.021,0.069,0.035,0.113,0.035c0.083,0,0.157-0.039,0.213-0.114
		c0.066-0.118,0.03-0.274-0.088-0.331l-0.73-0.437l0.865-0.499c0.113-0.066,0.151-0.213,0.088-0.331
		c-0.062-0.116-0.214-0.155-0.331-0.089l-0.87,0.506l-0.014-0.871c-0.003-0.137-0.105-0.244-0.24-0.244s-0.239,0.115-0.238,0.244
		l0.007,1.149l-1.542,0.894v-1.811l0.972-0.555c0.114-0.064,0.163-0.215,0.098-0.33c-0.069-0.119-0.208-0.155-0.329-0.09l-0.74,0.42
		v-0.989c0-0.134-0.108-0.243-0.243-0.243c-0.137,0-0.239,0.109-0.239,0.243v0.998l-0.767-0.429c-0.12-0.064-0.257-0.028-0.324,0.09
		c-0.065,0.117-0.025,0.264,0.093,0.33l0.998,0.561v1.795l-1.577-0.909l0.007-1.124c0.014-0.129-0.1-0.244-0.234-0.244h-0.008
		c-0.127,0-0.239,0.107-0.24,0.244l-0.008,0.846l-0.851-0.489c-0.119-0.067-0.264-0.028-0.327,0.087
		c-0.063,0.121-0.03,0.264,0.087,0.332l0.858,0.496l-0.749,0.449c-0.118,0.057-0.155,0.215-0.082,0.331
		c0.045,0.075,0.113,0.114,0.205,0.114c0.048,0,0.085-0.012,0.126-0.035l0.98-0.58l1.572,0.9l-1.572,0.912l-0.98-0.58
		c-0.118-0.07-0.27-0.035-0.331,0.078c-0.065,0.121-0.03,0.265,0.082,0.334l0.749,0.443l-0.858,0.499
		c-0.117,0.07-0.155,0.214-0.087,0.331c0.049,0.083,0.114,0.123,0.205,0.123c0.022,0,0.064-0.014,0.122-0.035l0.851-0.488
		l0.008,0.846c0.002,0.135,0.113,0.24,0.24,0.24h0.008c0.135,0,0.235-0.113,0.234-0.25l-0.007-1.122l1.577-0.903v1.787l-0.998,0.562
		c-0.119,0.066-0.161,0.213-0.093,0.331c0.05,0.083,0.114,0.122,0.205,0.122c0.044,0,0.084-0.008,0.119-0.029l0.767-0.435v1.017
		c0,0.135,0.103,0.238,0.239,0.238c0.135,0,0.243-0.104,0.243-0.238v-1l0.74,0.418c0.035,0.021,0.076,0.029,0.113,0.029
		c0.098,0,0.168-0.039,0.216-0.122c0.065-0.118,0.022-0.265-0.098-0.331l-0.972-0.547v-1.812l1.542,0.894l-0.007,1.141
		c-0.001,0.137,0.104,0.25,0.238,0.25s0.237-0.105,0.24-0.24l0.014-0.875l0.87,0.508c0.035,0.021,0.08,0.027,0.128,0.027
		c0.09,0,0.158-0.038,0.203-0.113C-80.361-35.92-80.409-36.069-80.522-36.135z"/>
	<path fill="#ADC6D8" d="M-67.177-35.135l-0.865-0.501l0.73-0.434c0.119-0.059,0.154-0.217,0.088-0.334
		c-0.068-0.117-0.217-0.145-0.326-0.078l-0.977,0.57l-1.551-0.902l1.551-0.893l0.977,0.572c0.029,0.021,0.068,0.035,0.113,0.035
		c0.082,0,0.156-0.039,0.213-0.114c0.064-0.118,0.031-0.274-0.088-0.331l-0.73-0.437l0.865-0.499
		c0.115-0.066,0.152-0.213,0.088-0.331c-0.061-0.116-0.215-0.155-0.332-0.089l-0.869,0.506l-0.014-0.871
		c-0.002-0.137-0.104-0.244-0.24-0.244s-0.24,0.115-0.24,0.244l0.01,1.149l-1.543,0.894v-1.811l0.973-0.555
		c0.113-0.064,0.162-0.215,0.096-0.33c-0.07-0.119-0.209-0.155-0.328-0.09l-0.74,0.42v-0.989c0-0.134-0.107-0.243-0.244-0.243
		s-0.24,0.109-0.24,0.243v0.998l-0.766-0.429c-0.119-0.064-0.256-0.028-0.322,0.09c-0.069,0.117-0.026,0.264,0.092,0.33l0.996,0.561
		v1.795l-1.577-0.909l0.01-1.124c0.014-0.129-0.1-0.244-0.234-0.244h-0.008c-0.129,0-0.24,0.107-0.242,0.244l-0.006,0.846
		l-0.852-0.489c-0.117-0.067-0.264-0.028-0.326,0.087c-0.064,0.121-0.033,0.264,0.086,0.332l0.857,0.496l-0.75,0.449
		c-0.115,0.057-0.152,0.215-0.08,0.331c0.045,0.075,0.113,0.114,0.203,0.114c0.049,0,0.088-0.012,0.127-0.035l0.982-0.58l1.571,0.9
		l-1.571,0.912l-0.982-0.58c-0.117-0.07-0.268-0.035-0.33,0.078c-0.066,0.121-0.031,0.265,0.08,0.334l0.75,0.443l-0.857,0.499
		c-0.119,0.07-0.156,0.214-0.086,0.331c0.047,0.083,0.113,0.123,0.203,0.123c0.023,0,0.066-0.014,0.123-0.035l0.852-0.488
		l0.006,0.846c0.004,0.135,0.113,0.24,0.242,0.24h0.008c0.135,0,0.234-0.113,0.234-0.25l-0.01-1.122l1.577-0.903v1.787l-0.996,0.562
		c-0.12,0.066-0.163,0.213-0.092,0.331c0.047,0.083,0.113,0.122,0.205,0.122c0.043,0,0.084-0.008,0.117-0.029l0.766-0.435v1.017
		c0,0.135,0.104,0.238,0.24,0.238s0.244-0.104,0.244-0.238v-1l0.74,0.418c0.035,0.021,0.074,0.029,0.115,0.029
		c0.094,0,0.164-0.039,0.213-0.122c0.064-0.118,0.023-0.265-0.096-0.331l-0.973-0.547v-1.812l1.543,0.894l-0.01,1.141
		c0,0.137,0.104,0.25,0.24,0.25s0.238-0.105,0.24-0.24l0.014-0.875l0.869,0.508c0.035,0.021,0.08,0.027,0.129,0.027
		c0.09,0,0.156-0.038,0.203-0.113C-67.017-34.92-67.062-35.069-67.177-35.135z"/>
	<path fill="#ADC6D8" d="M-86.05-27.292l-0.865-0.502l0.73-0.434c0.118-0.058,0.154-0.215,0.088-0.334
		c-0.068-0.117-0.216-0.143-0.326-0.077l-0.978,0.571l-1.551-0.903l1.551-0.893l0.978,0.571c0.03,0.021,0.068,0.035,0.112,0.035
		c0.082,0,0.157-0.039,0.214-0.113c0.064-0.119,0.03-0.275-0.088-0.331l-0.73-0.437l0.865-0.5c0.114-0.064,0.151-0.212,0.088-0.33
		c-0.062-0.117-0.215-0.156-0.331-0.09l-0.87,0.508l-0.015-0.872c-0.002-0.138-0.104-0.244-0.24-0.244
		c-0.135,0-0.24,0.116-0.24,0.244l0.01,1.149l-1.542,0.893v-1.811l0.971-0.555c0.115-0.064,0.163-0.215,0.098-0.33
		c-0.07-0.119-0.207-0.154-0.328-0.089l-0.74,0.419v-0.988c0-0.135-0.108-0.244-0.245-0.244c-0.135,0-0.239,0.109-0.239,0.244v0.996
		l-0.767-0.427c-0.118-0.064-0.256-0.03-0.322,0.089c-0.068,0.117-0.025,0.265,0.092,0.33l0.997,0.562v1.796l-1.578-0.91l0.01-1.124
		c0.014-0.128-0.1-0.244-0.234-0.244h-0.01c-0.126,0-0.238,0.106-0.238,0.244l-0.01,0.847l-0.851-0.49
		c-0.116-0.068-0.264-0.027-0.325,0.087c-0.064,0.121-0.031,0.264,0.086,0.333l0.859,0.496l-0.75,0.448
		c-0.118,0.056-0.154,0.216-0.083,0.331c0.047,0.074,0.115,0.113,0.206,0.113c0.049,0,0.087-0.012,0.126-0.035l0.979-0.58
		l1.573,0.901l-1.573,0.911l-0.979-0.579c-0.119-0.069-0.269-0.036-0.332,0.077c-0.064,0.122-0.029,0.266,0.083,0.334l0.75,0.443
		l-0.859,0.5c-0.117,0.068-0.155,0.214-0.086,0.331c0.048,0.083,0.112,0.123,0.204,0.123c0.023,0,0.066-0.014,0.121-0.036
		l0.851-0.488l0.01,0.847c0.001,0.135,0.112,0.239,0.238,0.239h0.01c0.135,0,0.234-0.113,0.234-0.25l-0.01-1.121l1.578-0.904v1.787
		l-0.997,0.563c-0.12,0.065-0.161,0.214-0.092,0.331c0.048,0.083,0.114,0.123,0.205,0.123c0.044,0,0.084-0.01,0.117-0.03
		l0.767-0.435v1.017c0,0.135,0.104,0.239,0.239,0.239c0.137,0,0.245-0.104,0.245-0.239v-1l0.74,0.418
		c0.034,0.021,0.074,0.03,0.113,0.03c0.096,0,0.168-0.04,0.215-0.123c0.064-0.117,0.022-0.266-0.098-0.331l-0.971-0.546v-1.812
		l1.542,0.893l-0.01,1.141c0,0.137,0.105,0.25,0.24,0.25c0.136,0,0.238-0.104,0.24-0.239l0.015-0.876l0.87,0.51
		c0.033,0.02,0.079,0.025,0.126,0.025c0.092,0,0.157-0.037,0.205-0.113C-85.89-27.077-85.936-27.228-86.05-27.292z"/>
	<path fill="#ADC6D8" d="M-72.461-27.292l-0.869-0.502l0.732-0.434c0.117-0.058,0.154-0.215,0.088-0.334
		c-0.068-0.117-0.217-0.143-0.328-0.077l-0.975,0.571l-1.551-0.903l1.551-0.893l0.975,0.571c0.031,0.021,0.072,0.035,0.113,0.035
		c0.084,0,0.158-0.039,0.215-0.113c0.064-0.119,0.029-0.275-0.088-0.331l-0.732-0.437l0.869-0.5c0.111-0.064,0.15-0.212,0.084-0.33
		c-0.061-0.117-0.213-0.156-0.33-0.09l-0.869,0.508l-0.014-0.872c-0.002-0.138-0.105-0.244-0.24-0.244s-0.24,0.116-0.24,0.244
		l0.01,1.149l-1.543,0.893v-1.811l0.971-0.555c0.115-0.064,0.164-0.215,0.098-0.33c-0.068-0.119-0.209-0.154-0.326-0.089
		l-0.742,0.419v-0.988c0-0.135-0.109-0.244-0.244-0.244s-0.24,0.109-0.24,0.244v0.996l-0.766-0.427
		c-0.119-0.064-0.256-0.03-0.322,0.089c-0.068,0.117-0.025,0.265,0.09,0.33l0.998,0.562v1.796l-1.576-0.91l0.01-1.124
		c0.012-0.128-0.101-0.244-0.237-0.244h-0.007c-0.128,0-0.238,0.106-0.241,0.244l-0.007,0.847l-0.852-0.49
		c-0.118-0.068-0.264-0.027-0.326,0.087c-0.065,0.121-0.032,0.264,0.086,0.333l0.86,0.496l-0.75,0.448
		c-0.118,0.056-0.154,0.216-0.083,0.331c0.046,0.074,0.113,0.113,0.206,0.113c0.047,0,0.086-0.012,0.125-0.035l0.982-0.58
		l1.57,0.901l-1.57,0.911l-0.982-0.579c-0.117-0.069-0.269-0.036-0.331,0.077c-0.063,0.122-0.028,0.266,0.083,0.334l0.75,0.443
		l-0.86,0.5c-0.118,0.068-0.155,0.214-0.086,0.331c0.049,0.083,0.112,0.123,0.203,0.123c0.022,0,0.066-0.014,0.123-0.036
		l0.852-0.488l0.007,0.847c0.003,0.135,0.113,0.239,0.241,0.239h0.007c0.137,0,0.237-0.113,0.237-0.25l-0.01-1.121l1.576-0.904
		v1.787l-0.998,0.563c-0.117,0.065-0.16,0.214-0.09,0.331c0.047,0.083,0.111,0.123,0.205,0.123c0.043,0,0.082-0.01,0.117-0.03
		l0.766-0.435v1.017c0,0.135,0.105,0.239,0.24,0.239s0.244-0.104,0.244-0.239v-1l0.742,0.418c0.033,0.021,0.072,0.03,0.111,0.03
		c0.096,0,0.168-0.04,0.215-0.123c0.066-0.117,0.021-0.266-0.098-0.331l-0.971-0.546v-1.812l1.543,0.893l-0.01,1.141
		c0,0.137,0.105,0.25,0.24,0.25s0.238-0.104,0.24-0.239l0.014-0.876l0.869,0.51c0.033,0.02,0.08,0.025,0.127,0.025
		c0.092,0,0.158-0.037,0.207-0.113C-72.303-27.077-72.35-27.228-72.461-27.292z"/>
</g>
<path fill="#ADC6D8" d="M18.597-87.163l-0.868-0.501l0.733-0.434c0.117-0.059,0.153-0.217,0.086-0.334s-0.214-0.145-0.327-0.078
	l-0.975,0.57l-1.552-0.902l1.552-0.893l0.975,0.572c0.03,0.021,0.07,0.035,0.113,0.035c0.085,0,0.158-0.039,0.214-0.114
	c0.066-0.118,0.031-0.274-0.086-0.331l-0.733-0.437l0.868-0.499c0.112-0.066,0.151-0.213,0.086-0.331
	c-0.062-0.116-0.214-0.155-0.331-0.089l-0.87,0.506l-0.013-0.871c-0.002-0.137-0.104-0.244-0.239-0.244
	c-0.137,0-0.241,0.115-0.241,0.244l0.01,1.149l-1.544,0.894v-1.811l0.974-0.555c0.112-0.064,0.162-0.215,0.095-0.33
	c-0.068-0.119-0.207-0.155-0.326-0.09l-0.742,0.42v-0.989c0-0.134-0.107-0.243-0.242-0.243c-0.137,0-0.241,0.109-0.241,0.243v0.998
	l-0.767-0.429c-0.119-0.064-0.255-0.028-0.321,0.09c-0.068,0.117-0.026,0.264,0.091,0.33l0.997,0.561v1.795l-1.577-0.909
	l0.009-1.124c0.015-0.129-0.099-0.244-0.233-0.244h-0.01c-0.127,0-0.239,0.107-0.24,0.244l-0.008,0.846l-0.851-0.489
	c-0.118-0.067-0.264-0.028-0.325,0.087c-0.066,0.121-0.033,0.264,0.085,0.332l0.858,0.496l-0.749,0.449
	c-0.117,0.057-0.154,0.215-0.082,0.331c0.046,0.075,0.113,0.114,0.205,0.114c0.047,0,0.087-0.012,0.125-0.035l0.981-0.58l1.573,0.9
	l-1.573,0.912l-0.981-0.58c-0.117-0.07-0.268-0.035-0.33,0.078c-0.065,0.121-0.029,0.265,0.082,0.334l0.749,0.443l-0.858,0.499
	c-0.118,0.07-0.156,0.214-0.085,0.331c0.047,0.083,0.112,0.123,0.203,0.123c0.022,0,0.065-0.014,0.122-0.035l0.851-0.488
	l0.008,0.846c0.003,0.135,0.113,0.24,0.24,0.24h0.01c0.135,0,0.233-0.113,0.233-0.25l-0.009-1.122l1.577-0.903v1.787l-0.997,0.562
	c-0.119,0.066-0.16,0.213-0.091,0.331c0.047,0.083,0.111,0.122,0.203,0.122c0.045,0,0.084-0.008,0.118-0.029l0.767-0.435v1.017
	c0,0.135,0.104,0.238,0.241,0.238c0.135,0,0.242-0.104,0.242-0.238v-1l0.742,0.418c0.033,0.021,0.073,0.029,0.11,0.029
	c0.098,0,0.17-0.039,0.216-0.122c0.066-0.118,0.023-0.265-0.095-0.331l-0.974-0.547v-1.812l1.544,0.894l-0.01,1.141
	c0,0.137,0.104,0.25,0.241,0.25c0.135,0,0.237-0.105,0.239-0.24l0.013-0.875l0.87,0.508c0.034,0.021,0.079,0.027,0.127,0.027
	c0.092,0,0.158-0.038,0.205-0.113C18.755-86.948,18.709-87.098,18.597-87.163z"/>
<path fill="#ADC6D8" d="M28.35-87.09l-0.838-0.485l0.708-0.42c0.114-0.058,0.151-0.211,0.085-0.324
	c-0.066-0.113-0.207-0.14-0.316-0.075l-0.945,0.552l-1.503-0.874l1.503-0.864l0.945,0.554c0.029,0.021,0.067,0.034,0.11,0.034
	c0.08,0,0.152-0.037,0.206-0.11c0.064-0.114,0.029-0.266-0.085-0.32l-0.708-0.424l0.838-0.483c0.11-0.064,0.147-0.206,0.085-0.32
	c-0.06-0.112-0.208-0.15-0.321-0.086l-0.843,0.49l-0.013-0.845c-0.003-0.132-0.102-0.236-0.233-0.236
	c-0.13,0-0.231,0.112-0.23,0.236l0.006,1.114l-1.494,0.865v-1.754l0.941-0.537c0.11-0.062,0.158-0.208,0.094-0.32
	c-0.067-0.115-0.201-0.15-0.319-0.087l-0.717,0.407v-0.959c0-0.129-0.105-0.235-0.236-0.235c-0.132,0-0.232,0.106-0.232,0.235v0.967
	l-0.743-0.415c-0.116-0.062-0.249-0.027-0.314,0.087c-0.063,0.113-0.025,0.256,0.09,0.32l0.967,0.543v1.739l-1.528-0.881l0.006-1.09
	c0.014-0.124-0.096-0.236-0.227-0.236h-0.007c-0.123,0-0.232,0.104-0.233,0.236l-0.007,0.819l-0.824-0.474
	c-0.115-0.065-0.255-0.027-0.317,0.084c-0.062,0.117-0.029,0.256,0.084,0.322l0.832,0.48l-0.726,0.436
	c-0.114,0.055-0.15,0.208-0.079,0.32c0.043,0.073,0.109,0.11,0.198,0.11c0.046,0,0.083-0.011,0.122-0.034l0.95-0.562l1.523,0.872
	l-1.523,0.884l-0.95-0.562c-0.114-0.068-0.261-0.034-0.32,0.075c-0.063,0.117-0.03,0.257,0.079,0.324l0.726,0.429l-0.832,0.483
	c-0.113,0.068-0.15,0.208-0.084,0.321c0.047,0.08,0.111,0.119,0.199,0.119c0.021,0,0.062-0.014,0.118-0.034l0.824-0.473l0.007,0.819
	c0.002,0.13,0.11,0.232,0.233,0.232h0.007c0.131,0,0.228-0.109,0.227-0.242l-0.006-1.087l1.528-0.875v1.731l-0.967,0.545
	c-0.115,0.064-0.156,0.206-0.09,0.32c0.048,0.08,0.111,0.118,0.199,0.118c0.042,0,0.081-0.008,0.115-0.028l0.743-0.421v0.985
	c0,0.13,0.1,0.23,0.232,0.23c0.13,0,0.236-0.101,0.236-0.23v-0.97l0.717,0.405c0.034,0.021,0.074,0.028,0.11,0.028
	c0.095,0,0.163-0.038,0.209-0.118c0.063-0.114,0.022-0.256-0.094-0.32l-0.941-0.53v-1.755l1.494,0.865l-0.006,1.105
	c-0.001,0.133,0.1,0.242,0.23,0.242c0.131,0,0.23-0.103,0.233-0.232l0.013-0.848l0.843,0.491c0.034,0.021,0.078,0.027,0.124,0.027
	c0.087,0,0.153-0.037,0.197-0.11C28.506-86.882,28.459-87.026,28.35-87.09z"/>
<path fill="#ADC6D8" d="M29.679-78.804L29.03-79.18l0.548-0.326c0.089-0.043,0.116-0.162,0.065-0.251s-0.161-0.106-0.244-0.058
	l-0.734,0.428l-1.164-0.678l1.164-0.67l0.734,0.429c0.022,0.017,0.051,0.027,0.084,0.027c0.062,0,0.118-0.03,0.16-0.086
	c0.049-0.089,0.023-0.206-0.065-0.248L29.03-80.94l0.648-0.374c0.086-0.049,0.114-0.16,0.066-0.248
	c-0.046-0.088-0.161-0.117-0.248-0.068l-0.653,0.381l-0.011-0.654c-0.002-0.103-0.078-0.184-0.181-0.184
	c-0.101,0-0.181,0.088-0.181,0.184l0.008,0.863l-1.158,0.67v-1.359l0.729-0.416c0.087-0.049,0.122-0.161,0.073-0.248
	c-0.053-0.09-0.156-0.116-0.246-0.066l-0.557,0.314v-0.742c0-0.102-0.081-0.183-0.184-0.183c-0.102,0-0.18,0.081-0.18,0.183v0.748
	l-0.575-0.32c-0.089-0.049-0.192-0.022-0.242,0.066c-0.051,0.088-0.019,0.199,0.069,0.248l0.748,0.422v1.348l-1.185-0.684
	l0.008-0.844c0.01-0.096-0.075-0.184-0.177-0.184h-0.007c-0.095,0-0.179,0.081-0.179,0.184l-0.008,0.635l-0.639-0.367
	c-0.087-0.051-0.197-0.021-0.244,0.065c-0.048,0.091-0.023,0.198,0.064,0.249l0.646,0.373l-0.562,0.337
	c-0.089,0.042-0.116,0.161-0.062,0.248c0.035,0.056,0.087,0.086,0.155,0.086c0.036,0,0.064-0.009,0.094-0.027l0.735-0.435
	l1.181,0.676l-1.181,0.685l-0.735-0.435c-0.09-0.053-0.201-0.027-0.249,0.058c-0.048,0.092-0.022,0.199,0.062,0.251l0.562,0.332
	l-0.646,0.375c-0.088,0.053-0.116,0.161-0.064,0.25c0.037,0.061,0.085,0.092,0.154,0.092c0.018,0,0.049-0.01,0.09-0.027l0.639-0.367
	l0.008,0.637c0,0.101,0.084,0.179,0.179,0.179h0.007c0.102,0,0.177-0.085,0.177-0.187l-0.008-0.843l1.185-0.678v1.341l-0.748,0.424
	c-0.09,0.049-0.121,0.16-0.069,0.248c0.036,0.062,0.086,0.092,0.154,0.092c0.032,0,0.063-0.006,0.088-0.022l0.575-0.327v0.764
	c0,0.102,0.078,0.18,0.18,0.18c0.103,0,0.184-0.078,0.184-0.18v-0.75l0.557,0.313c0.025,0.017,0.055,0.022,0.084,0.022
	c0.072,0,0.127-0.029,0.162-0.092c0.049-0.088,0.017-0.199-0.073-0.248l-0.729-0.41v-1.361l1.158,0.67l-0.008,0.857
	c0,0.102,0.08,0.187,0.181,0.187c0.103,0,0.179-0.078,0.181-0.179l0.011-0.658l0.653,0.383c0.025,0.016,0.059,0.02,0.094,0.02
	c0.069,0,0.119-0.029,0.154-0.086C29.8-78.643,29.765-78.756,29.679-78.804z"/>
<path fill="#ADC6D8" d="M46.054-87.934l-0.648-0.376l0.548-0.326c0.089-0.043,0.116-0.161,0.065-0.251
	c-0.051-0.088-0.161-0.106-0.244-0.058l-0.734,0.429l-1.164-0.678l1.164-0.67l0.734,0.428c0.022,0.018,0.051,0.027,0.084,0.027
	c0.062,0,0.118-0.029,0.16-0.086c0.049-0.088,0.023-0.205-0.065-0.248l-0.548-0.328l0.648-0.374
	c0.086-0.048,0.114-0.159,0.066-0.248c-0.046-0.088-0.161-0.117-0.248-0.067l-0.653,0.381l-0.011-0.654
	c-0.002-0.104-0.078-0.184-0.181-0.184c-0.101,0-0.181,0.087-0.181,0.184l0.008,0.863l-1.158,0.67v-1.359l0.729-0.416
	c0.087-0.049,0.122-0.162,0.073-0.248c-0.053-0.09-0.156-0.117-0.246-0.066l-0.557,0.314v-0.742c0-0.102-0.081-0.184-0.184-0.184
	c-0.102,0-0.18,0.082-0.18,0.184v0.748l-0.575-0.32c-0.089-0.049-0.192-0.023-0.242,0.066c-0.051,0.088-0.019,0.198,0.069,0.248
	l0.748,0.421v1.348l-1.185-0.683l0.008-0.844c0.01-0.097-0.075-0.184-0.177-0.184h-0.007c-0.095,0-0.179,0.08-0.179,0.184
	l-0.008,0.635l-0.639-0.367c-0.087-0.051-0.197-0.021-0.244,0.064c-0.048,0.092-0.023,0.198,0.064,0.25l0.646,0.373l-0.562,0.336
	c-0.089,0.043-0.116,0.162-0.062,0.248c0.035,0.057,0.087,0.086,0.155,0.086c0.036,0,0.064-0.008,0.094-0.027l0.735-0.435
	l1.181,0.677l-1.181,0.684l-0.735-0.435c-0.09-0.052-0.201-0.026-0.249,0.058c-0.048,0.092-0.022,0.199,0.062,0.251l0.562,0.333
	l-0.646,0.375c-0.088,0.052-0.116,0.16-0.064,0.249c0.037,0.062,0.085,0.093,0.154,0.093c0.018,0,0.049-0.011,0.09-0.027
	l0.639-0.367l0.008,0.636c0,0.101,0.084,0.179,0.179,0.179h0.007c0.102,0,0.177-0.084,0.177-0.187l-0.008-0.843l1.185-0.678v1.342
	l-0.748,0.423c-0.09,0.05-0.121,0.16-0.069,0.248c0.036,0.062,0.086,0.093,0.154,0.093c0.032,0,0.063-0.007,0.088-0.023l0.575-0.326
	v0.764c0,0.102,0.078,0.18,0.18,0.18c0.103,0,0.184-0.078,0.184-0.18v-0.75l0.557,0.312c0.025,0.017,0.055,0.023,0.084,0.023
	c0.072,0,0.127-0.03,0.162-0.093c0.049-0.088,0.017-0.198-0.073-0.248l-0.729-0.409v-1.361l1.158,0.67l-0.008,0.856
	c0,0.103,0.08,0.187,0.181,0.187c0.103,0,0.179-0.078,0.181-0.179l0.011-0.657l0.653,0.382c0.025,0.016,0.059,0.02,0.094,0.02
	c0.069,0,0.119-0.028,0.154-0.085C46.175-87.772,46.14-87.885,46.054-87.934z"/>
<path fill="#ADC6D8" d="M21.804-79.304l-0.648-0.376l0.548-0.326c0.089-0.043,0.116-0.162,0.065-0.251s-0.161-0.106-0.244-0.058
	l-0.734,0.428l-1.164-0.678l1.164-0.67l0.734,0.429c0.022,0.017,0.051,0.027,0.084,0.027c0.062,0,0.118-0.03,0.16-0.086
	c0.049-0.089,0.023-0.206-0.065-0.248l-0.548-0.328l0.648-0.374c0.086-0.049,0.114-0.16,0.066-0.248
	c-0.046-0.088-0.161-0.117-0.248-0.068l-0.653,0.381l-0.011-0.654c-0.002-0.103-0.078-0.184-0.181-0.184
	c-0.101,0-0.181,0.088-0.181,0.184l0.008,0.863l-1.158,0.67v-1.359l0.729-0.416c0.087-0.049,0.122-0.161,0.073-0.248
	c-0.053-0.09-0.156-0.116-0.246-0.066l-0.557,0.314v-0.742c0-0.102-0.081-0.183-0.184-0.183c-0.102,0-0.18,0.081-0.18,0.183v0.748
	l-0.575-0.32c-0.089-0.049-0.192-0.022-0.242,0.066c-0.051,0.088-0.019,0.199,0.069,0.248l0.748,0.422v1.348l-1.185-0.684
	l0.008-0.844c0.01-0.096-0.075-0.184-0.177-0.184h-0.007c-0.095,0-0.179,0.081-0.179,0.184l-0.008,0.635l-0.639-0.367
	c-0.087-0.051-0.197-0.021-0.244,0.065c-0.048,0.091-0.023,0.198,0.064,0.249l0.646,0.373l-0.562,0.337
	c-0.089,0.042-0.116,0.161-0.062,0.248c0.035,0.056,0.087,0.086,0.155,0.086c0.036,0,0.064-0.009,0.094-0.027l0.735-0.435
	l1.181,0.676l-1.181,0.685l-0.735-0.435c-0.09-0.053-0.201-0.027-0.249,0.058c-0.048,0.092-0.022,0.199,0.062,0.251l0.562,0.332
	l-0.646,0.375c-0.088,0.053-0.116,0.161-0.064,0.25c0.037,0.061,0.085,0.092,0.154,0.092c0.018,0,0.049-0.01,0.09-0.027l0.639-0.367
	l0.008,0.637c0,0.101,0.084,0.179,0.179,0.179h0.007c0.102,0,0.177-0.085,0.177-0.187l-0.008-0.843l1.185-0.678v1.341l-0.748,0.424
	c-0.09,0.049-0.121,0.16-0.069,0.248c0.036,0.062,0.086,0.092,0.154,0.092c0.032,0,0.063-0.006,0.088-0.022l0.575-0.327v0.764
	c0,0.102,0.078,0.18,0.18,0.18c0.103,0,0.184-0.078,0.184-0.18v-0.75l0.557,0.313c0.025,0.017,0.055,0.022,0.084,0.022
	c0.072,0,0.127-0.029,0.162-0.092c0.049-0.088,0.017-0.199-0.073-0.248l-0.729-0.41v-1.361l1.158,0.67l-0.008,0.857
	c0,0.102,0.08,0.187,0.181,0.187c0.103,0,0.179-0.078,0.181-0.179l0.011-0.658l0.653,0.383c0.025,0.016,0.059,0.02,0.094,0.02
	c0.069,0,0.119-0.029,0.154-0.086C21.925-79.143,21.89-79.256,21.804-79.304z"/>
<path fill="#ADC6D8" d="M44.942-79.516l-0.769-0.443l0.647-0.384c0.104-0.05,0.137-0.189,0.077-0.295
	c-0.061-0.104-0.19-0.126-0.289-0.068L43.747-80.2L42.375-81l1.372-0.789l0.862,0.506c0.027,0.019,0.062,0.031,0.1,0.031
	c0.073,0,0.139-0.035,0.189-0.101c0.059-0.105,0.027-0.243-0.077-0.293l-0.647-0.386l0.769-0.442
	c0.099-0.057,0.132-0.188,0.074-0.292c-0.055-0.104-0.188-0.138-0.293-0.079l-0.768,0.448l-0.013-0.771
	c-0.001-0.121-0.093-0.216-0.212-0.216s-0.213,0.103-0.212,0.216l0.008,1.017l-1.363,0.789v-1.601l0.857-0.491
	c0.102-0.057,0.145-0.189,0.086-0.292c-0.061-0.105-0.184-0.137-0.288-0.078l-0.655,0.37v-0.874c0-0.119-0.098-0.216-0.217-0.216
	c-0.12,0-0.212,0.097-0.212,0.216v0.881l-0.677-0.377c-0.106-0.058-0.227-0.027-0.285,0.078c-0.062,0.104-0.022,0.234,0.08,0.292
	l0.882,0.497v1.588l-1.395-0.805l0.009-0.994c0.01-0.113-0.09-0.216-0.21-0.216h-0.007c-0.112,0-0.21,0.095-0.213,0.216
	l-0.006,0.749l-0.753-0.434c-0.104-0.062-0.233-0.024-0.288,0.077c-0.058,0.106-0.028,0.232,0.076,0.294l0.76,0.439l-0.663,0.396
	c-0.104,0.05-0.136,0.19-0.073,0.293c0.04,0.065,0.101,0.101,0.183,0.101c0.041,0,0.076-0.012,0.109-0.031l0.868-0.514L41.521-81
	l-1.389,0.806l-0.868-0.512c-0.104-0.061-0.237-0.031-0.292,0.068c-0.057,0.108-0.025,0.234,0.073,0.295l0.663,0.393l-0.76,0.442
	c-0.104,0.061-0.137,0.188-0.076,0.293c0.043,0.073,0.1,0.108,0.18,0.108c0.021,0,0.059-0.012,0.108-0.032l0.753-0.432l0.006,0.748
	c0.003,0.12,0.101,0.212,0.213,0.212h0.007c0.12,0,0.21-0.101,0.21-0.221l-0.009-0.991l1.395-0.8v1.58l-0.882,0.498
	c-0.105,0.059-0.143,0.189-0.08,0.293c0.041,0.073,0.098,0.108,0.18,0.108c0.039,0,0.073-0.008,0.105-0.026l0.677-0.384v0.898
	c0,0.12,0.092,0.212,0.212,0.212c0.119,0,0.217-0.092,0.217-0.212v-0.884l0.655,0.369c0.029,0.019,0.064,0.026,0.1,0.026
	c0.085,0,0.147-0.035,0.188-0.108c0.059-0.104,0.02-0.234-0.086-0.293l-0.857-0.482v-1.603l1.363,0.789l-0.008,1.009
	c-0.001,0.12,0.093,0.221,0.212,0.221s0.211-0.092,0.212-0.212l0.013-0.774l0.768,0.451c0.03,0.018,0.072,0.022,0.113,0.022
	c0.08,0,0.14-0.032,0.183-0.101C45.082-79.325,45.041-79.458,44.942-79.516z"/>
<g>
	<path fill="#FFAE3F" d="M32.229-74.357c-0.043,0-0.087-0.006-0.131-0.018c-0.242-0.065-0.398-0.302-0.364-0.551l1.124-8.169h-1.663
		c-0.148,0-0.289-0.065-0.384-0.18c-0.095-0.113-0.135-0.264-0.108-0.41l1.761-9.688c0.044-0.237,0.251-0.41,0.492-0.41h4.574
		c0.167,0,0.323,0.084,0.416,0.223c0.093,0.14,0.109,0.315,0.045,0.47l-2.339,5.605h1.601c0.167,0,0.323,0.083,0.416,0.223
		c0.093,0.139,0.109,0.314,0.046,0.469L32.69-74.666C32.611-74.476,32.427-74.357,32.229-74.357z"/>
	<path fill="#FFFFFF" d="M37.53-93.283l-2.629,6.298h2.352l-5.024,12.128l1.202-8.737h-2.236l1.762-9.688H37.53 M37.53-94.283
		h-4.574c-0.483,0-0.897,0.346-0.983,0.821l-1.762,9.688c-0.053,0.292,0.026,0.592,0.216,0.819s0.471,0.359,0.768,0.359h1.089
		l-1.045,7.601c-0.069,0.499,0.243,0.971,0.729,1.102c0.087,0.024,0.175,0.035,0.262,0.035c0.396,0,0.766-0.236,0.924-0.617
		l5.024-12.128c0.128-0.309,0.093-0.661-0.093-0.938s-0.497-0.444-0.831-0.444h-0.851l2.051-4.913
		c0.129-0.309,0.095-0.661-0.091-0.939S37.865-94.283,37.53-94.283L37.53-94.283z"/>
</g>
<g>
	
		<linearGradient id="SVGID_16_" gradientUnits="userSpaceOnUse" x1="-3046.1362" y1="-113.7363" x2="-3046.1362" y2="-95.9922" gradientTransform="matrix(-1 0 0 1 -3009.1279 0)">
		<stop  offset="0" style="stop-color:#E6E6E6"/>
		<stop  offset="1" style="stop-color:#B3B3B3"/>
	</linearGradient>
	<path fill="url(#SVGID_16_)" d="M22.532-101.539c0-2.779,2.08-5.08,4.795-5.48c0.963-3.859,4.451-6.717,8.609-6.717
		c2.784,0,5.268,1.285,6.895,3.292c0.477-0.259,1.025-0.407,1.607-0.407c1.838,0,3.328,1.465,3.328,3.272
		c0,0.274-0.039,0.54-0.104,0.795c2.221,0.744,3.82,2.813,3.82,5.25c0,3.062-2.523,5.542-5.638,5.542
		c-0.048,0-0.095-0.008-0.141-0.008h-9.632c-0.045,0-0.092,0.004-0.137,0.004c-0.047,0-0.092-0.004-0.139-0.004h-7.486
		c-0.045,0-0.092,0.004-0.139,0.004c-0.048,0-0.094-0.004-0.141-0.004H28.03l0,0C24.981-96,22.532-98.522,22.532-101.539z"/>
	<linearGradient id="SVGID_17_" gradientUnits="userSpaceOnUse" x1="21.6216" y1="-122.833" x2="21.6216" y2="-98">
		<stop  offset="0" style="stop-color:#CCCCCC"/>
		<stop  offset="1" style="stop-color:#999999"/>
	</linearGradient>
	<path fill="url(#SVGID_17_)" d="M26.532-107.879c1.176-3.684,4.387-6.311,8.195-6.775c-1.568-4.748-6.022-8.179-11.295-8.179
		c-4.768,0-8.869,2.806-10.773,6.852c-1.843,0.101-3.31,1.613-3.31,3.481c0,0.904,0.353,1.721,0.917,2.343
		c-1.084,1.186-1.75,3.259-1.75,4.991c0,3.457,2.75,7.166,6,7.166c1.816,0,4.832,0,8.057,0c-0.656-1.021-1.041-2.234-1.041-3.537
		C21.532-104.531,23.64-107.15,26.532-107.879z"/>
</g>
<linearGradient id="SVGID_18_" gradientUnits="userSpaceOnUse" x1="-47" y1="6.1958" x2="-47" y2="36.0005">
	<stop  offset="0" style="stop-color:#E6E6E6"/>
	<stop  offset="1" style="stop-color:#B3B3B3"/>
</linearGradient>
<path fill="url(#SVGID_18_)" d="M-22.809,26.65c0-4.645-3.478-8.537-8.014-9.207c-1.609-6.449-7.439-11.248-14.386-11.248
	c-4.654,0-8.805,2.135-11.524,5.488c-0.795-0.433-1.711-0.686-2.686-0.686c-3.07,0-5.561,2.446-5.561,5.466
	c0,0.459,0.064,0.902,0.173,1.328c-3.712,1.244-6.386,4.701-6.386,8.773c0,5.117,4.192,9.436,9.395,9.436c0.08,0,29.328,0,29.328,0
	c0.078,0,0.39,0,0.469,0h0.003l0,0C-26.901,36-22.809,31.689-22.809,26.65z"/>
<g>
	<linearGradient id="SVGID_19_" gradientUnits="userSpaceOnUse" x1="26.7949" y1="-55.1094" x2="26.7949" y2="-55.1094">
		<stop  offset="0" style="stop-color:#C9D0D5"/>
		<stop  offset="0.3157" style="stop-color:#9DAFBC"/>
		<stop  offset="1" style="stop-color:#34617F"/>
	</linearGradient>
	<path fill="url(#SVGID_19_)" d="M26.795-55.109"/>
</g>
<g>
	
		<linearGradient id="SVGID_20_" gradientUnits="userSpaceOnUse" x1="-3047.9536" y1="-69.834" x2="-3047.9536" y2="-51.9961" gradientTransform="matrix(-1 0 0 1 -3009.1279 0)">
		<stop  offset="0" style="stop-color:#C9D0D5"/>
		<stop  offset="0.3157" style="stop-color:#9DAFBC"/>
		<stop  offset="1" style="stop-color:#34617F"/>
	</linearGradient>
	<path fill="url(#SVGID_20_)" d="M24.35-57.595c0-2.779,2.08-5.108,4.795-5.508c0.963-3.859,4.451-6.731,8.609-6.731
		c2.784,0,5.268,1.278,6.895,3.285c0.477-0.259,1.025-0.411,1.607-0.411c1.838,0,3.328,1.463,3.328,3.271
		c0,0.274-0.039,0.539-0.104,0.794c2.221,0.744,3.82,2.813,3.82,5.25c0,3.061-2.523,5.597-5.638,5.597
		c-0.048,0-0.095,0.048-0.141,0.048h-9.632c-0.045,0-0.092,0.004-0.137,0.004c-0.047,0-0.092-0.004-0.139-0.004h-7.486
		c-0.045,0-0.092,0.004-0.139,0.004c-0.048,0-0.094-0.004-0.141-0.004h-0.002l0,0C26.799-52,24.35-54.578,24.35-57.595z"/>
	<linearGradient id="SVGID_21_" gradientUnits="userSpaceOnUse" x1="23.439" y1="-78.9443" x2="23.439" y2="-54">
		<stop  offset="0" style="stop-color:#B3BFC7"/>
		<stop  offset="0.3369" style="stop-color:#879EAD"/>
		<stop  offset="1" style="stop-color:#285573"/>
	</linearGradient>
	<path fill="url(#SVGID_21_)" d="M28.35-63.99c1.176-3.684,4.387-6.311,8.195-6.775c-1.568-4.748-6.022-8.179-11.295-8.179
		c-4.768,0-8.869,2.806-10.773,6.852c-1.843,0.101-3.31,1.613-3.31,3.481c0,0.904,0.353,1.721,0.917,2.343
		c-1.084,1.186-1.75,3.314-1.75,5.047c0,3.457,2.75,7.222,6,7.222c1.816,0,4.832,0,8.057,0c-0.656-1-1.041-2.29-1.041-3.593
		C23.35-60.587,25.457-63.262,28.35-63.99z"/>
</g>
<g>
	
		<linearGradient id="SVGID_22_" gradientUnits="userSpaceOnUse" x1="-2976.1196" y1="-52.4478" x2="-2976.1196" y2="-34.9844" gradientTransform="matrix(-1 0 0 1 -3009.1279 0)">
		<stop  offset="0" style="stop-color:#B4CDDC"/>
		<stop  offset="1" style="stop-color:#6EA9D5"/>
	</linearGradient>
	<path fill="url(#SVGID_22_)" d="M-47.484-40.375c0-2.779,2.08-4.997,4.795-5.397c0.963-3.859,4.451-6.675,8.609-6.675
		c2.784,0,5.268,1.306,6.895,3.312c0.477-0.259,1.025-0.397,1.607-0.397c1.838,0,3.328,1.47,3.328,3.277
		c0,0.274-0.039,0.542-0.104,0.797c2.221,0.744,3.82,2.815,3.82,5.252c0,3.062-2.509,5.222-5.623,5.222
		c-0.048,0-9.787-0.016-9.787-0.016c-0.045,0-0.092,0.004-0.137,0.004c-0.047,0-0.092-0.004-0.139-0.004h-7.486
		c-0.045,0-0.092,0.004-0.139,0.004S-41.937-35-41.984-35h-0.002l0,0C-45.035-35-47.484-37.357-47.484-40.375z"/>
	<linearGradient id="SVGID_23_" gradientUnits="userSpaceOnUse" x1="-48.394" y1="-61.5034" x2="-48.394" y2="-37">
		<stop  offset="0" style="stop-color:#9FBDCF"/>
		<stop  offset="1" style="stop-color:#3F8FC4"/>
	</linearGradient>
	<path fill="url(#SVGID_23_)" d="M-43.484-46.55c1.176-3.683,4.387-6.31,8.195-6.775c-1.568-4.748-6.021-8.179-11.294-8.179
		c-4.768,0-8.869,2.806-10.773,6.852c-1.842,0.101-3.309,1.613-3.309,3.481c0,0.904,0.352,1.721,0.916,2.342
		c-1.083,1.186-1.75,3.094-1.75,4.826c0,3.457,2.75,7.002,6,7.002c1.816,0,4.832,0,8.057,0c-0.656-1-1.041-2.07-1.041-3.373
		C-48.484-43.367-46.376-45.821-43.484-46.55z"/>
	<path fill="#FFFFFF" d="M-16.559-51.906c0.107-0.216,0.062-0.476-0.107-0.645c-0.17-0.171-0.429-0.213-0.645-0.108
		c-1.21,0.599-2.567,0.913-3.924,0.913c-2.367,0-4.591-0.92-6.265-2.595c-2.687-2.686-3.361-6.78-1.682-10.187
		c0.106-0.217,0.063-0.475-0.105-0.645c-0.17-0.171-0.431-0.213-0.646-0.107c-0.981,0.485-1.872,1.123-2.644,1.895
		c-1.887,1.887-2.925,4.395-2.925,7.062c0,0.055,0.007,0.108,0.008,0.164c0.508,0.858,0.925,1.78,1.229,2.757
		c0.043,0,0.085-0.005,0.128-0.005c2.735,0,5.31,1.118,7.173,3.092c0.428-0.137,0.878-0.207,1.33-0.207
		c2.048,0,3.759,1.416,4.205,3.304c1.092-0.49,2.102-1.172,2.975-2.043C-17.681-50.036-17.043-50.924-16.559-51.906z"/>
</g>
<g>
	<linearGradient id="SVGID_24_" gradientUnits="userSpaceOnUse" x1="29.9995" y1="0" x2="29.9995" y2="60.0005">
		<stop  offset="0" style="stop-color:#003D6A;stop-opacity:0.7"/>
		<stop  offset="1" style="stop-color:#003D6A"/>
	</linearGradient>
	<circle fill="url(#SVGID_24_)" cx="30" cy="30" r="30"/>
	<radialGradient id="SVGID_25_" cx="12.8965" cy="14.4512" r="2.3125" gradientUnits="userSpaceOnUse">
		<stop  offset="0" style="stop-color:#FFFFFF;stop-opacity:0.85"/>
		<stop  offset="1" style="stop-color:#003D6A;stop-opacity:0"/>
	</radialGradient>
	<circle fill="url(#SVGID_25_)" cx="12.896" cy="14.451" r="2.312"/>
	<radialGradient id="SVGID_26_" cx="26.8965" cy="8.4512" r="2.3125" gradientUnits="userSpaceOnUse">
		<stop  offset="0" style="stop-color:#FFFFFF;stop-opacity:0.85"/>
		<stop  offset="1" style="stop-color:#003D6A;stop-opacity:0"/>
	</radialGradient>
	<circle fill="url(#SVGID_26_)" cx="26.896" cy="8.451" r="2.312"/>
	<radialGradient id="SVGID_27_" cx="35.5215" cy="20.0762" r="2.9375" gradientUnits="userSpaceOnUse">
		<stop  offset="0" style="stop-color:#FFFFFF;stop-opacity:0.85"/>
		<stop  offset="1" style="stop-color:#003D6A;stop-opacity:0"/>
	</radialGradient>
	<circle fill="url(#SVGID_27_)" cx="35.521" cy="20.076" r="2.938"/>
	<radialGradient id="SVGID_28_" cx="50.5215" cy="35.0762" r="2.9375" gradientUnits="userSpaceOnUse">
		<stop  offset="0" style="stop-color:#FFFFFF;stop-opacity:0.85"/>
		<stop  offset="1" style="stop-color:#003D6A;stop-opacity:0"/>
	</radialGradient>
	<circle fill="url(#SVGID_28_)" cx="50.521" cy="35.076" r="2.938"/>
	<radialGradient id="SVGID_29_" cx="46.7715" cy="20.3262" r="4.6875" gradientUnits="userSpaceOnUse">
		<stop  offset="0" style="stop-color:#FFFFFF;stop-opacity:0.85"/>
		<stop  offset="1" style="stop-color:#003D6A;stop-opacity:0"/>
	</radialGradient>
	<circle fill="url(#SVGID_29_)" cx="46.771" cy="20.326" r="4.688"/>
	<radialGradient id="SVGID_30_" cx="9.7715" cy="35.3262" r="4.6875" gradientUnits="userSpaceOnUse">
		<stop  offset="0" style="stop-color:#FFFFFF;stop-opacity:0.85"/>
		<stop  offset="1" style="stop-color:#003D6A;stop-opacity:0"/>
	</radialGradient>
	<circle fill="url(#SVGID_30_)" cx="9.771" cy="35.326" r="4.688"/>
	<radialGradient id="SVGID_31_" cx="40.8965" cy="49.4512" r="2.3125" gradientUnits="userSpaceOnUse">
		<stop  offset="0" style="stop-color:#FFFFFF;stop-opacity:0.85"/>
		<stop  offset="1" style="stop-color:#003D6A;stop-opacity:0"/>
	</radialGradient>
	<circle fill="url(#SVGID_31_)" cx="40.896" cy="49.451" r="2.312"/>
	<linearGradient id="SVGID_32_" gradientUnits="userSpaceOnUse" x1="24.3276" y1="31.1523" x2="24.3276" y2="44.3545">
		<stop  offset="0" style="stop-color:#B4CDDC"/>
		<stop  offset="1" style="stop-color:#6EA9D5"/>
	</linearGradient>
	<path fill="url(#SVGID_32_)" d="M35.098,40.229c0-2.068-1.549-3.781-3.568-4.079c-0.717-2.87-3.312-4.997-6.404-4.997
		c-2.072,0-3.92,0.955-5.129,2.449c-0.355-0.193-0.764-0.303-1.197-0.303c-1.367,0-2.476,1.09-2.476,2.435
		c0,0.204,0.028,0.401,0.077,0.591c-1.652,0.555-2.843,2.094-2.843,3.906c0,2.277,1.878,4.124,4.194,4.124
		c0.036,0,13.256-0.005,13.256-0.005C33.275,44.35,35.098,42.473,35.098,40.229z"/>
	<path fill="#FFFFFF" d="M47.938,30.277c-0.234-0.237-0.594-0.295-0.893-0.149c-1.678,0.828-3.559,1.265-5.439,1.265
		c-3.279,0-6.361-1.275-8.682-3.596c-3.725-3.723-4.658-9.398-2.33-14.119c0.146-0.301,0.088-0.659-0.146-0.895
		c-0.236-0.236-0.598-0.295-0.896-0.148c-1.359,0.672-2.594,1.556-3.664,2.627c-2.615,2.614-4.053,6.09-4.053,9.787
		c0,1.896,0.384,3.731,1.105,5.425c0.699-0.21,1.434-0.321,2.186-0.321c3.282,0,6.156,2.086,7.195,5.146
		c1.748,0.491,3.093,1.877,3.574,3.58c3.613-0.056,7.003-1.481,9.566-4.042c1.07-1.072,1.955-2.305,2.625-3.666
		C48.234,30.871,48.174,30.512,47.938,30.277z"/>
</g>
</svg>
